<?xml version="1.0" encoding="UTF-8" standalone="no" ?>
<!DOCTYPE svg PUBLIC "-//W3C//DTD SVG 1.1//EN" "http://www.w3.org/Graphics/SVG/1.1/DTD/svg11.dtd">
<svg xmlns="http://www.w3.org/2000/svg" xmlns:xlink="http://www.w3.org/1999/xlink" version="1.1" width="1280" height="1024" viewBox="0 0 1280 1024" xml:space="preserve">
<desc>Created with Fabric.js 4.4.0</desc>
<defs>
</defs>
<g transform="matrix(1 0 0 1 640 512)" id="background-logo"  >
<rect style="stroke: none; stroke-width: 0; stroke-dasharray: none; stroke-linecap: butt; stroke-dashoffset: 0; stroke-linejoin: miter; stroke-miterlimit: 4; fill: rgb(255,255,255); fill-opacity: 0; fill-rule: nonzero; opacity: 1;"  paint-order="stroke"  x="-640" y="-512" rx="0" ry="0" width="1280" height="1024" />
</g>
<g transform="matrix(1.9211538461538462 0 0 1.9211538461538462 638.6733493698939 806.0707923585625)" id="text-logo"  >
<g style=""  paint-order="stroke"   >
		<g transform="matrix(1 0 0 1 0 0)" id="text-logo-path-0"  >
<path style="stroke: none; stroke-width: 0; stroke-dasharray: none; stroke-linecap: butt; stroke-dashoffset: 0; stroke-linejoin: miter; stroke-miterlimit: 4; fill: rgb(63,133,140); fill-rule: nonzero; opacity: 1;"  paint-order="stroke"  transform=" translate(-238.89499999999998, 20.055)" d="M 10.14 0 L -0.71 -36.29 L 11.32 -36.29 L 16.65 -16.35 L 20.29 -31.58 L 25.02 -14.36 L 21.11 0 L 10.14 0 Z M 30.76 0 L 20.81 -36.29 L 33 -36.29 L 42.3 0 L 30.76 0 Z M 43.59 -1.89 L 38.66 -21.22 L 42.41 -36.29 L 53.43 -36.29 L 43.59 -1.89 Z M 73.76 0 L 66.52 -7.25 L 66.52 -21.79 L 73.76 -29.04 L 81.88 -29.04 L 81.88 -21.79 L 78.74 -21.79 L 78.74 -6.78 L 81.88 -6.78 L 81.88 0 L 73.76 0 Z M 91.89 0 L 83.8 0 L 83.8 -6.78 L 86.81 -6.78 L 86.81 -21.79 L 83.8 -21.79 L 83.8 -29.04 L 91.89 -29.04 L 99.14 -21.79 L 99.14 -7.25 L 91.89 0 Z M 127.86 0 L 115.78 0 L 115.78 -29.04 L 127.86 -29.04 L 127.86 0 Z M 134.95 -21.79 L 129.81 -21.79 L 129.81 -24.96 L 133.85 -29.04 L 141.18 -29.04 L 147.06 -22.26 L 147.06 -14.74 L 134.95 -14.74 L 134.95 -21.79 Z M 174.06 0 L 161.98 0 L 161.98 -40.11 L 174.06 -40.11 L 174.06 0 Z M 194.03 -29.01 L 175.95 -4.1 L 175.95 -20.67 L 181.53 -28.98 L 194.03 -29.01 Z M 181.53 0 L 179.53 -5.85 L 186.67 -15.48 L 194.65 0 L 181.53 0 Z M 216.05 0 L 208.81 -7.25 L 208.81 -21.79 L 216.05 -29.04 L 224.17 -29.04 L 224.17 -21.79 L 221.03 -21.79 L 221.03 -6.78 L 224.17 -6.78 L 224.17 0 L 216.05 0 Z M 234.18 0 L 226.09 0 L 226.09 -6.78 L 229.1 -6.78 L 229.1 -21.79 L 226.09 -21.79 L 226.09 -29.04 L 234.18 -29.04 L 241.43 -21.79 L 241.43 -7.25 L 234.18 0 Z M 265.1 0 L 257.82 -7.25 L 257.82 -29.04 L 269.91 -29.04 L 269.91 -7.25 L 275.3 -7.25 L 275.3 -3.64 L 271.8 0 L 265.1 0 Z M 289.3 0 L 277.21 0 L 277.21 -29.04 L 289.3 -29.04 L 289.3 0 Z M 306.51 -21.79 L 304.11 -21.79 L 304.11 -29.04 L 306.51 -29.04 L 306.51 -32.18 L 318.6 -36.29 L 318.6 -7.25 L 326.58 -7.25 L 326.58 0 L 313.79 0 L 306.51 -7.25 L 306.51 -21.79 Z M 327.02 -21.79 L 320.51 -21.79 L 320.51 -29.04 L 327.02 -29.04 L 327.02 -21.79 Z M 349.4 0 L 342.16 -7.25 L 342.16 -21.79 L 349.4 -29.04 L 354.24 -29.04 L 354.24 0 L 349.4 0 Z M 368.79 0 L 356.16 0 L 356.16 -6.78 L 372.4 -6.78 L 372.4 -3.64 L 368.79 0 Z M 373.66 -11.65 L 356.16 -11.65 L 356.16 -16.71 L 362.53 -16.71 L 362.53 -21.79 L 356.16 -21.79 L 356.16 -29.04 L 366.41 -29.04 L 373.66 -21.79 L 373.66 -11.65 Z M 402.44 0 L 390.35 0 L 390.35 -36.29 L 402.44 -36.29 L 402.44 0 Z M 408.56 -10.88 L 404.35 -10.88 L 404.35 -17.91 L 413.43 -17.91 L 413.43 -29.04 L 404.35 -29.04 L 404.35 -36.29 L 418.16 -36.29 L 425.44 -29.04 L 425.44 -18.16 L 419.86 -12.58 L 419.47 -13.34 L 408.13 -11.84 L 408.56 -10.88 Z M 413.76 0 L 408.56 -10.88 L 418.16 -10.88 L 419.86 -12.58 L 426.67 0 L 413.76 0 Z M 454.27 0 L 442.19 0 L 442.19 -36.29 L 454.27 -36.29 L 454.27 0 Z M 460.4 -10.88 L 456.19 -10.88 L 456.19 -17.91 L 465.26 -17.91 L 465.26 -29.04 L 456.19 -29.04 L 456.19 -36.29 L 470 -36.29 L 477.27 -29.04 L 477.27 -18.16 L 471.69 -12.58 L 471.31 -13.34 L 459.96 -11.84 L 460.4 -10.88 Z M 465.59 0 L 460.4 -10.88 L 470 -10.88 L 471.69 -12.58 L 478.5 0 L 465.59 0 Z" stroke-linecap="round" />
</g>
</g>
</g>
</svg>