<?xml version="1.0" encoding="UTF-8" standalone="no" ?>
<!DOCTYPE svg PUBLIC "-//W3C//DTD SVG 1.1//EN" "http://www.w3.org/Graphics/SVG/1.1/DTD/svg11.dtd">
<svg xmlns="http://www.w3.org/2000/svg" xmlns:xlink="http://www.w3.org/1999/xlink" version="1.1" width="1280" height="1024" viewBox="0 0 1280 1024" xml:space="preserve">
<desc>Created with Fabric.js 4.4.0</desc>
<defs>
</defs>
<g transform="matrix(1 0 0 1 640 512)" id="background-logo"  >
<rect style="stroke: none; stroke-width: 0; stroke-dasharray: none; stroke-linecap: butt; stroke-dashoffset: 0; stroke-linejoin: miter; stroke-miterlimit: 4; fill: rgb(255,255,255); fill-opacity: 0; fill-rule: nonzero; opacity: 1;"  paint-order="stroke"  x="-640" y="-512" rx="0" ry="0" width="1280" height="1024" />
</g>
<g transform="matrix(3.1343195649979623 0 0 3.1343195649979623 640.452067669173 429.13106002508323)" id="logo-logo"  >
<g style=""  paint-order="stroke"   >
		<g transform="matrix(0.32033583775946894 0 0 0.32033583775946894 0 0)"  >
<path style="stroke: none; stroke-width: 1; stroke-dasharray: none; stroke-linecap: butt; stroke-dashoffset: 0; stroke-linejoin: miter; stroke-miterlimit: 4; fill: rgb(63,133,140); fill-rule: nonzero; opacity: 1;"  paint-order="stroke"  transform=" translate(-533.40972915, -483.61051175)" d="M 830.6097412 631.7105103 L 791.5997925 631.7105103 C 791.5197754000001 631.7105103 791.4597779000001 631.7805176 791.4597779000001 631.8605347 L 791.4597779000001 681.0805664000001 L 786.6797486 681.0805664000001 L 786.6797486 616.9105225000001 C 786.6797486 616.8305664000001 786.6197510000001 616.7705079000001 786.5397340000001 616.7705079000001 L 747.5297853000001 616.7705079000001 C 747.4497682000001 616.7705079000001 747.3797609000001 616.8305665000001 747.3797609000001 616.9105225000001 L 747.3797609000001 681.0805664000001 L 740.9697878000001 681.0805664000001 C 741.1397707000001 678.8005371 741.3897707000001 676.5305176 741.5697634 674.2605591 C 741.7997439000001 671.5105591 741.9497683000001 668.7505493 741.7897341 666.0005493 C 741.6397707 663.2305298 741.1797487 660.4805298 740.6497805 657.7605591 C 739.5897829 652.2905274 738.6897585 646.8005371 737.8297732 641.3005371 C 737.3997805 638.5705566 736.9897463 635.8305664000001 736.7597658999999 633.0805664000001 C 736.5297853999999 630.4005127 736.3597414999999 627.7305298000001 735.9997560999999 625.0605469000001 C 735.2497560999999 619.5805664000001 733.2797853999999 614.3205567000001 732.8697511999999 608.7805176 C 732.7697755999999 607.4105225000001 732.7597657999999 606.0505371 732.7997438999998 604.7005615 L 831.2097780999999 506.29055780000004 L 533.409729 208.4904938 L 235.6096802 506.2905579 L 334.01983640000003 604.7005616 C 334.05975340000003 606.0505372 334.04974360000006 607.4105225000001 333.949768 608.7805177 C 333.5397338 614.3205568 331.5697631 619.5805665 330.8197631 625.060547 C 330.449768 627.7305299000001 330.2798461 630.4005128 330.0597533 633.0805665 C 329.8297728 635.8305665 329.41973870000004 638.5705567 328.989807 641.3005372 C 328.1296996 646.8005372 327.2297972 652.2905274 326.16973859999996 657.7605592 C 325.63970929999994 660.4805299 325.17974839999994 663.2305299 325.02984599999996 666.0005494 C 324.86968979999995 668.7505494 325.0198362 671.5105592 325.24981669999994 674.2605592 C 325.4297482999999 676.5305177 325.6797482999999 678.8005372 325.84979229999993 681.0805665 L 319.42974839999994 681.0805665 L 319.42974839999994 616.9105226 C 319.42974839999994 616.8305665 319.36968979999995 616.7705080000001 319.28973379999996 616.7705080000001 L 280.2798461 616.7705080000001 C 280.199768 616.7705080000001 280.13970939999996 616.8305666000001 280.13970939999996 616.9105226 L 280.13970939999996 681.0805665 L 275.35968009999993 681.0805665 L 275.35968009999993 631.8605348 C 275.35968009999993 631.7805177 275.29974359999994 631.7105104 275.21978749999994 631.7105104 L 236.20977769999993 631.7105104 C 236.12969959999992 631.7105104 236.06976309999993 631.7805177 236.06976309999993 631.8605348 L 236.06976309999993 743.6505128 C 236.06976309999993 743.7305299 236.12969959999992 743.7905274 236.20977769999993 743.7905274 L 275.21978749999994 743.7905274 C 275.29974359999994 743.7905274 275.35968009999993 743.7305298 275.35968009999993 743.6505128 L 275.35968009999993 694.430542 L 280.13970939999996 694.430542 L 280.13970939999996 758.5905151 C 280.13970939999996 758.6705321999999 280.19976799999995 758.7305296999999 280.2798461 758.7305296999999 L 319.28973379999996 758.7305296999999 C 319.36968989999997 758.7305296999999 319.42974839999994 758.6705321 319.42974839999994 758.5905151 L 319.42974839999994 694.430542 L 327.2997434999999 694.430542 C 328.2798459999999 698.0005493 330.0298459999999 701.2605590999999 333.1697385999999 703.5905151 C 334.2698362999999 704.4005126999999 335.5897824999999 705.0505370999999 336.9597776999999 705.3805541999999 C 338.2897337999999 706.0105590999999 339.7398069999999 706.3305663999998 341.2097776999999 706.2305297999999 C 345.0198362999999 705.9605102999999 348.6296995999999 703.1105346999999 352.31976309999993 704.1105346999999 C 353.4597776999999 704.4205322999999 354.4797972999999 705.0805664 355.60968009999993 705.4105225 C 357.8796995999999 706.0805664 360.50982659999994 705.2705079 362.00982659999994 703.4405518 C 363.10968009999993 702.1005249 363.96978749999994 700.1005249 365.69976799999995 700.0905152 C 366.3097534 700.0905152 366.88970939999996 700.3705445 367.49981679999996 700.4705201 C 370.04974359999994 700.8605347 371.84979239999996 698.0905152 372.8796996 695.7205201 L 373.4197387 694.4305421 L 693.3997802 694.4305421 L 693.9397582 695.7205201 C 694.9697875 698.0905152 696.7697753 700.8605347 699.3197631 700.4705201 C 699.9297485000001 700.3705445 700.5097655000001 700.0905152 701.1197509000001 700.0905152 C 702.8497924000001 700.1005250000001 703.7097778000001 702.1005250000001 704.8097533000001 703.4405518 C 706.3097533000001 705.2705079 708.9397582000001 706.0805664 711.2097777000001 705.4105225 C 712.3397826000001 705.0805664 713.3597411000002 704.4205323 714.4997557000002 704.1105346999999 C 718.1797484000001 703.1105346999999 721.7997435000002 705.9605102999999 725.6097411000002 706.2305297999999 C 727.0797728000002 706.3305663999998 728.5297850000002 706.0105590999999 729.8597411000002 705.3805541999999 C 731.2297362000002 705.0505370999999 732.5397338000001 704.4005126999999 733.6497802000001 703.5905151 C 736.7897338000001 701.260559 738.5397338000001 698.0005493 739.5197753000001 694.430542 L 747.3797607000001 694.430542 L 747.3797607000001 758.5905151 C 747.3797607000001 758.6705321999999 747.4497680000002 758.7305296999999 747.5297851000001 758.7305296999999 L 786.5397338000001 758.7305296999999 C 786.6197509000001 758.7305296999999 786.6797484000001 758.6705321 786.6797484000001 758.5905151 L 786.6797484000001 694.430542 L 791.4597777000001 694.430542 L 791.4597777000001 743.6505126999999 C 791.4597777000001 743.7305297999999 791.5197753000001 743.7905272999999 791.5997923000001 743.7905272999999 L 830.6097410000001 743.7905272999999 C 830.6897581000001 743.7905272999999 830.7497556000001 743.7305296999999 830.7497556000001 743.6505126999999 L 830.7497556000001 631.8605346999999 C 830.7497559 631.7805176 830.6897583 631.7105103 830.6097412 631.7105103 z M 333.7698364 578.5305176 C 333.0897827 580.6705322 332.6497192 582.8005371 332.5597534 585.0005493000001 L 253.84979249999998 506.2905578000001 L 533.409729 226.730484 L 812.9697876 506.2905426 L 734.2597656 585.0005341 C 734.1697387 582.8005219 733.7297363 580.670517 733.0497436 578.5305023999999 C 732.1997680000001 575.8205414999999 731.3797607 573.0904999999999 730.5097656 570.3805389999999 C 730.2297363 569.5305023999999 729.9397583 568.6905365999999 729.6397705 567.8505096999999 C 729.3797607 566.5105438999999 729.0697632 565.1805267999998 728.6797485000001 563.8705291999999 C 727.7197876 560.6605071999999 726.40979 557.5605315999999 724.8897705 554.5805511999998 C 724.8797607 554.5505218999998 724.8597412 554.5105438999998 724.8397827 554.4805145999999 C 723.6497803 550.8905487999999 722.3397827 547.3305511999998 721.0897827 543.7704925999999 C 720.0697632 540.8705291999999 718.8597412 538.0204925999999 717.7397461 535.1705169999999 C 716.6197510000001 532.3305512 715.5497437 529.4805145999999 714.3997803000001 526.6504974999999 C 713.4597779000001 524.3105317 712.4297486 521.9705048 711.4697876000001 519.6005096999999 C 711.0297852000001 518.4405365999999 710.5797730000002 517.2704925999999 710.1197510000002 516.1105194999999 C 709.4597779000002 514.2704925999999 708.8797608000002 512.4105073 708.4397583000002 510.5105743999999 C 708.2397461000003 509.18055729999986 708.1997681000003 507.8905792999999 708.1797485000002 506.5405426999999 C 708.1597900000002 505.30055249999987 708.0997924000002 504.0405426999999 707.8897705000002 502.8305817999999 C 707.6397705000002 498.9805451999999 706.9597778000002 495.1306305999999 705.9997559000002 491.4405671999999 C 705.5197754000002 489.57057209999994 704.9397583000002 487.7404939999999 704.2497559000002 485.9405671999999 C 704.3097535000002 485.78053299999993 704.3097535000002 485.6006013999999 704.2397461000002 485.4105378999999 C 702.7197876000001 481.2304841999999 700.7197876000001 477.2005769999999 698.3297730000002 473.4505769999999 C 696.2197876000001 470.1505281999999 693.7597657000001 467.0405427999999 691.0297852000001 464.2404939999999 C 689.1497803000001 462.3105623999999 687.0997925000001 460.5705720999999 684.9997559000001 458.8906404999999 C 682.7497559000001 456.17054769999993 680.6597901000001 453.3005525999999 678.6897583000001 450.3706209999999 C 676.6297607000001 447.3205721999999 674.8497925000001 444.1306307999999 673.1497803000001 440.8706209999999 C 671.4997559000001 437.7104647999999 669.5397339000001 434.7304842999999 667.3697510000001 431.8906404999999 C 662.7997437 425.92054769999993 657.3997803000001 420.6406404999999 651.3697510000001 416.1505281999999 C 648.4397583000001 413.9704744999999 645.3497925 412.0005037999999 642.0997925 410.3205720999999 C 640.5397339 409.52052329999987 638.9297486 408.7204743999999 637.2697754000001 408.1705476999999 C 635.4197388000001 407.5505525999999 633.4797363000001 407.2605134999999 631.5497437 407.04054279999986 C 628.6397706 406.7104646999999 625.7897339 406.37062089999984 622.9397583 405.8205720999999 C 622.5997925 405.6705476999999 622.2697754 405.52052329999987 621.9497681 405.3706208999999 C 619.8797608 404.4704743999999 617.6997681 403.8606110999999 615.579773 403.0705720999999 C 611.4397584000001 401.5305329999999 608.7597657 397.83058189999986 605.7897339000001 394.75050369999985 C 602.2097778000001 391.05055249999987 598.2997437000001 387.58058179999983 593.7297974 385.15052809999986 C 589.2798462000001 382.7805329999999 584.5298462000001 380.9704743999999 579.9797974 378.7805329999999 C 578.0298462000001 377.8305817999999 576.0198365 376.9505768999999 573.9497681 376.2705231999999 C 573.9597779000001 376.0005036999999 574.0298462000001 375.7805329999999 574.0298462000001 375.4804840999999 C 574.0298462000001 375.0605621999999 573.7798462000001 374.7005768999999 573.7197876 374.2905426999999 C 573.6196899 373.7104645999999 573.7297974 373.1306305999999 573.8796997000001 372.5705719999999 C 574.2798462000001 371.0205231999999 575.0397339000001 369.60060129999994 575.6196899 368.1206207999999 C 576.1897583 366.69056709999995 576.3696899 365.25050359999994 576.1497192 363.7104645999999 C 575.9397583 362.16053779999993 575.4998169 360.7104645999999 576.1797485000001 359.20057689999993 C 577.3197631 356.6705475999999 579.1497192 353.44056709999995 576.9797973000001 350.89064039999994 C 575.4898071000001 349.12062089999995 573.2398071000001 349.37062089999995 571.4097289000001 350.3405915999999 C 571.9597777000001 347.1306306999999 571.6497191000001 343.7505036999999 571.0497435000001 340.57057209999994 C 570.1697386000001 335.95057699999995 568.6497191000001 331.4405671999999 567.3997191000001 326.91053789999995 C 566.2698363000001 322.79054279999997 564.5797728000001 318.93055739999994 561.3097533000001 316.07057209999994 C 558.0997924000001 313.2705232999999 554.1397094000001 311.07057209999994 550.2297972000001 309.43055749999996 C 546.0298460000001 307.6705477 541.5797728000001 306.74049399999996 537.0497435000001 306.44056729999994 C 536.5098265000001 306.4105379999999 535.9697874000001 306.39064049999996 535.4197386000001 306.3706209999999 L 535.4197386000001 306.3405916999999 C 535.1397093 306.3305818999999 534.8497923000001 306.3405916999999 534.5597532 306.3405916999999 C 534.1797483 306.3305818999999 533.7897337 306.3305818999999 533.4097288 306.3305818999999 C 533.029846 306.3305818999999 532.6397093 306.3305818999999 532.2598265 306.3405916999999 C 531.9697874000001 306.3405916999999 531.6797484 306.3305818999999 531.3897093 306.3405916999999 L 531.3897093 306.3706209999999 C 530.8497923000001 306.3906404999999 530.3097532 306.4105379999999 529.7698363000001 306.44056729999994 C 525.239807 306.7404940999999 520.7897338 307.67054779999995 516.5897826 309.43055749999996 C 512.6797484 311.07057209999994 508.71978750000005 313.2705233 505.50982650000003 316.07057209999994 C 502.23980700000004 318.93055749999996 500.54974350000003 322.7905427999999 499.4197386 326.91053789999995 C 498.1697386 331.4405672 496.6497191 335.95057699999995 495.7698363 340.57057209999994 C 495.1697386 343.7505036999999 494.8596801 347.1306306999999 495.4097289 350.3405915999999 C 493.5797728 349.37062089999995 491.3297728 349.12062089999995 489.8397826 350.89064039999994 C 487.6697387 353.4405671999999 489.49981679999996 356.67054759999996 490.63970939999996 359.20057689999993 C 491.31976309999993 360.7104645999999 490.8796996 362.16053779999993 490.65972889999995 363.7104645999999 C 490.44976799999995 365.2505036999999 490.6296995999999 366.6905670999999 491.19976799999995 368.1206207999999 C 491.7297973 369.4604645999999 492.3796995999999 370.7605133999999 492.8097534 372.1406402999999 C 492.82977289999997 373.4704742999999 492.56976319999995 374.7404937999999 491.56976319999995 375.5505523999999 C 489.7498168999999 377.0505523999999 487.4497681 377.9904937999999 485.39971929999996 379.1206207999999 C 484.33978279999997 379.69056709999995 483.2798463 380.27052309999993 482.22979739999994 380.8806305999999 C 479.14971929999996 382.2404938999999 476.04974369999996 383.5805817999999 473.08978279999997 385.1505280999999 C 468.51983649999994 387.5805817999999 464.6096803 391.0505524999999 461.0298463 394.7505036999999 C 458.0597535 397.8305817999999 455.37969979999997 401.53053299999993 451.22979749999996 403.07057209999994 C 449.11969009999996 403.86061119999994 446.93975839999996 404.47047439999994 444.86969009999996 405.37062089999995 C 444.54974379999993 405.52052319999996 444.209778 405.67054769999993 443.87969989999993 405.82057209999994 C 441.02984639999994 406.37062089999995 438.17974869999995 406.71046469999993 435.26983659999996 407.0405427999999 C 433.3397829 407.2605134999999 431.3997194 407.5505525999999 429.5497438 408.17054769999993 C 427.8796999 408.7204744999999 426.2798463 409.5205232999999 424.7197877 410.32057209999994 C 421.4697877 412.0005036999999 418.37969979999997 413.97047439999994 415.4497682 416.15052819999994 C 409.4097291 420.64064049999996 404.0198366 425.92054769999993 399.4497682 431.89064049999996 C 397.2798463 434.73048429999994 395.3097536 437.7104647 393.66973889999997 440.87062099999997 C 391.9697877 444.13063079999995 390.18975839999996 447.32057219999996 388.12969979999997 450.37062099999997 C 386.1597291 453.30055259999995 384.0697633 456.17054779999995 381.8197633 458.89064049999996 C 379.7197877 460.57057209999994 377.66973889999997 462.3105624 375.78973399999995 464.24049399999996 C 373.04974379999993 467.04054279999997 370.59979259999994 470.15052819999994 368.4898072 473.45057699999995 C 366.0997926 477.20057699999995 364.0997926 481.2304842 362.579773 485.41053789999995 C 362.50982669999996 485.60060139999996 362.50982669999996 485.78053299999993 362.5697632 485.9405672 C 361.8796997 487.74049399999996 361.2997437 489.5705721 360.8197632 491.4405672 C 359.8596802 495.1306307 359.17974860000004 498.9805452 358.92974860000004 502.8305818 C 358.71978770000004 504.0405427 358.65972910000005 505.3005525 358.63970950000004 506.5405427 C 358.61969000000005 507.8905793 358.57977300000005 509.1805573 358.37969970000006 510.5105744 C 357.93975830000005 512.4105073 357.35968020000007 514.2704926 356.68975830000005 516.1105195 C 356.23980710000006 517.2704926 355.78973390000004 518.4405366 355.34979250000004 519.6005097 C 354.37969970000006 521.9705048 353.3596802 524.3105317 352.409729 526.6504975 C 351.26983640000003 529.4805146 350.19976810000003 532.3305512000001 349.0797729 535.170517 C 347.95977780000004 538.0204926 346.7498168 540.8705292 345.72979730000003 543.7704926 C 344.47979730000003 547.3305512000001 343.16973870000004 550.8905488 341.97979730000003 554.4805146 C 341.95977780000004 554.5105439 341.9397582 554.5505219 341.9297485 554.5805512 C 340.409729 557.5605317 339.0997924 560.6605073 338.1397094 563.8705292 C 337.7498168 565.1805267999999 337.4297485 566.5105437999999 337.1797485 567.8505097 C 336.8796997 568.6905366 336.5897827 569.5305023999999 336.30975340000003 570.380539 C 335.4397583 573.0905151 334.6196899 575.8205566 333.7698364 578.5305176 z M 373.3997192 681.0805664 C 373.03973379999996 680.5005493 372.6497192 679.930542 372.2598266 679.3705444 C 371.0397338 677.6105345999999 369.8297729 675.8505249 368.6096801 674.0905151 C 365.1296996 669.0705565999999 363.1497192 663.5605468 364.1397094 657.4105224 C 365.1196899 651.3105468 366.66973870000004 645.2805175 368.7997436 639.47052 L 410.3997192 681.0805664 L 373.3997192 681.0805664 z M 460.6196899 635.2805176 C 458.93975830000005 635.5505371 457.2398071 635.0305176 455.55975340000003 634.7305298 C 453.87969970000006 634.4405518 451.97979730000003 634.4205322 450.659729 635.5005493 C 449.2798462 636.6205444 448.659729 638.8205566 446.89971920000005 639.1205444 C 446.20977780000004 639.2405395 445.50982660000005 639.0205078 444.80975340000003 638.9505614999999 C 442.49981690000004 638.7305297999999 440.3297729 640.3705444 439.199768 642.4005126999999 C 436.1697387 647.8505248999999 436.9197387 656.8905639999999 436.2997436 663.0305175999999 C 435.6797485 669.0405274 435.18975819999997 675.0505370999999 434.8097534 681.0805664 L 428.6397095 681.0805664 L 374.5397339 626.9805298 C 374.9597778 626.2505493 375.3796997 625.5205078 375.8097534 624.8005371 C 378.2897339 620.7005615 381.11968989999997 616.8105469000001 383.2698364 612.5305176 C 385.13970939999996 608.8105469000001 386.5997925 604.8205567 386.0997925 600.640564 C 385.6897583 597.1105347 385.52984619999995 594.8405152 386.6797486 591.2505494000001 C 389.14971929999996 583.5505372000001 393.9297486 576.6905518000001 399.50982669999996 570.9205323000001 C 401.21978759999996 569.1605225000001 403.16973879999995 567.6405640000002 404.85968019999996 565.8605347000001 C 406.32977299999993 564.3305664000002 407.58978269999994 562.6105347000001 408.83978269999994 560.8905640000002 C 414.28973389999993 553.4505616000001 419.75982659999994 545.9805298000001 424.12969969999995 537.8605347000001 C 425.1997681 535.8805542000001 426.2097777999999 533.8205567000001 426.54974359999994 531.5905152000001 C 426.92974849999996 529.0505372000001 426.39971919999994 526.4605103000001 425.87969969999995 523.9405518000001 C 425.0198364 519.8205567000001 424.14971919999994 515.6905518000001 423.28973389999993 511.5705872000001 C 425.23980709999995 520.9405518000001 431.11968999999993 529.0205079000001 437.68975829999994 535.9805298000001 C 442.7498168999999 541.3305664000001 448.3097533999999 546.2005615000002 453.37969969999995 551.5505371000002 C 455.31976319999995 553.5905151000002 458.0198364 555.7505493000001 459.1997681 558.2905273000001 C 460.58978269999994 561.2805175000001 460.9297486 564.9005127000001 460.95977789999995 568.1605224000001 C 460.9898072 573.9605102000002 459.95977789999995 579.8205566000001 460.8897094999999 585.5505370000001 C 461.36968999999993 588.4705199000001 462.3497924999999 591.2905272 462.93975829999994 594.1905516 C 462.97979739999994 594.3605345000001 462.9998168999999 594.5305174 463.02984619999995 594.6905516 C 462.64971919999994 594.9805296000001 462.28973389999993 595.2805174 461.92974849999996 595.5705565000001 C 460.46978759999996 596.7705077 459.0198364 598.0305174000001 457.65972899999997 599.3405150000001 C 454.9497681 601.9205321000001 452.4998169 604.7605589000001 450.36968989999997 607.8305663000001 C 448.3596801 610.7205199000001 446.4597778 613.7605590000001 444.94976799999995 616.9405517000001 C 443.40972889999995 620.2005615000002 442.28973379999996 623.7105102000002 442.85968009999993 627.3405151000002 C 443.06976309999993 628.6905517000001 445.44976799999995 628.3905639000002 445.26983629999995 627.0205078000001 C 445.2598265 626.8905640000002 445.2598265 626.7705078000001 445.24981679999996 626.6505127000001 C 445.5697631 625.7905273000001 445.88970939999996 624.9205322000001 446.26983629999995 624.0805664000002 C 446.40972889999995 623.8305664000002 446.53973379999996 623.5905151000002 446.66973859999996 623.3705444000002 C 446.9497679 622.8905639000002 447.20977769999996 622.3905639000002 447.45977769999996 621.9005127000001 C 447.989807 621.0605469000002 448.5697631 620.2505493000001 449.1997679 619.4905396000001 C 451.2498167 617.0405274000002 453.64971909999997 614.8205567000001 455.9797972 612.6405640000002 C 456.6597288 612.0005494000002 457.3497923 611.3505249000002 458.0597533 610.7105103000001 C 457.9397582 613.5005494000001 458.54974350000003 616.2005616000001 458.1597289 619.3605347000001 C 457.8596801 621.8205567000001 456.4998168 624.4905396000001 457.8297728 626.5705567000001 C 459.2997435 628.8905640000002 463.4397582 629.1605225000001 463.7698363 631.8805543000001 C 463.9797974 633.5705566 462.3097534 635.0005493 460.6196899 635.2805176 z M 626.6497803 681.0805664 C 626.7097779 680.0705565999999 626.7197876 679.0505370999999 626.7297364 678.0405273 C 626.8197633 668.2705078 626.7697754999999 658.5105590000001 626.5897828 648.7405395 C 626.4697877 642.1505126 626.2797852 635.5205077999999 624.9797364 629.0605468 C 624.4997559 626.6705322 623.6897584 624.0605468 621.5697633 622.8505248 C 619.7497559999999 621.8205565000001 617.4597779 622.1205443 615.4897462 621.4205321000001 C 609.5497438 619.3205565000001 609.7597657 610.2005614000001 604.6797486 606.4705199000001 C 604.3397828000001 606.2205199000001 603.9897462 606.0105590000001 603.6297608 605.8205565000001 C 603.0297852 601.9705199000001 603.0997925 598.0105589000001 603.8797608 594.1905516 C 604.4697877 591.2905272 605.4497681 588.4705199 605.9197388 585.5505370000001 C 606.8597412 579.8205565000001 605.8197632 573.9605101000001 605.8597412 568.1605224000001 C 605.8897705 564.9005126000001 606.2297363 561.2805175000001 607.6197510000001 558.2905273000001 C 608.7997437 555.7505493000001 611.4997559000001 553.5905151000002 613.4397583000001 551.5505371000002 C 618.5097656000002 546.2005615000002 624.0697632000001 541.3305664000002 629.1297607000001 535.9805298000001 C 635.6997680000002 529.0205078000001 641.5797729000001 520.9405518000001 643.5297851000001 511.5705872000001 C 642.6597900000002 515.6905518000001 641.7997436000002 519.8205567000001 640.9397582000001 523.9405518000001 C 640.4197387000002 526.4605103000001 639.8897704000001 529.0505372000001 640.2697753000001 531.5905152000001 C 640.6097411000001 533.8205567000001 641.6197509000001 535.8805543000001 642.6897582000001 537.8605347000001 C 647.0597533000001 545.9805298000001 652.5297851000001 553.4505616000001 657.9797362000002 560.8905640000002 C 659.2297362000002 562.6105347000001 660.4897460000002 564.3305664000002 661.9597777000001 565.8605347000001 C 663.6497801000002 567.6405640000002 665.5997923000001 569.1605225000002 667.3097533000001 570.9205323000001 C 672.8897704000001 576.6905518000001 677.6697387000002 583.5505372000001 680.1397704000001 591.2505494000001 C 681.2897338000001 594.8405152 681.1297606 597.1105348000001 680.7197875 600.640564 C 680.2197875 604.8205567 681.6797484000001 608.8105469000001 683.5497436 612.5305176 C 685.6997680000001 616.8105469000001 688.5297851 620.7005615 691.0097656 624.8005371 C 691.4397583 625.5205078 691.8597412 626.2505493 692.2797851 626.9805298 L 638.1797485000001 681.0805664 L 626.6497803 681.0805664 z M 698.2097778 674.0905151 C 696.9897460999999 675.8505249 695.7697754 677.6105345999999 694.5597534 679.3705444 C 694.1697388 679.930542 693.7797851 680.5005493 693.4197388 681.0805664 L 656.4197388 681.0805664 L 698.0197754 639.47052 C 700.1497803 645.2805175999999 701.6997680999999 651.3105469 702.6797485 657.4105224 C 703.6697388 663.5605469 701.6897583 669.0705566 698.2097778 674.0905151 z M 736.5997925 681.0805664 L 720.869751 681.0805664 C 718.7397460999999 680.47052 716.7197875999999 679.680542 715.119751 678.1705321999999 C 713.7797852 676.9105223999999 712.8497924999999 674.9505614999999 713.5397339 673.2505492999999 C 714.1297608 671.7905272999999 715.7097778 671.0005492999999 717.1997681 670.5005492999999 C 720.329773 669.4405516999999 723.6797486 669.0505370999999 726.9697876 669.3505248999999 C 727.5497437 669.4005126999999 728.1697388 669.4605102999999 728.6697388 669.1705321999999 C 729.5497437 668.6605223999999 729.5397339 667.3905639 729.3397827 666.3905639 C 728.7897339 663.6205444 727.5897827 660.9805296999999 725.869751 658.7405395 C 722.9697875999999 659.3505249 720.2597655999999 657.1605224 718.3397827 654.9105224 C 715.40979 651.4905395 713.1097412 647.5305175 711.5697632 643.300537 C 711.1497803 642.1205443 710.7897339 640.7705076999999 711.3397827 639.6505126 C 712.5697632 639.9005126 713.5797729 640.7305296999999 714.5497436 641.5305175 C 717.7697753000001 644.2205199 720.9997558 646.9005126 724.2197875 649.5905151 C 723.4197387 641.1105345999999 719.6297606 632.7705077999999 716.2597655000001 625.1205444 C 712.9497679000001 617.6105345999999 708.4197386000001 611.2905273 701.0097655000001 607.3005370999999 C 699.6997679000001 606.5905151 698.3197631 605.97052 697.1197509000001 605.0805664 C 695.90979 604.1705321999999 694.9197387000002 603.0105590999999 693.9597778000001 601.8405151 C 691.5697632000001 598.9505614999999 689.3397827000001 595.930542 687.2597656000002 592.8105468 C 690.4397583000001 593.3905639 693.1197510000002 595.4605102 696.0897827000001 596.7405395 C 699.6697388000001 598.2905273 703.7197876000001 598.7005614999999 707.5297851000001 597.8905639 C 703.6797485000002 595.2705076999999 699.3997802000001 592.8705444 695.8497924000002 589.8605345999999 C 693.4897460000002 587.8505247999999 690.6397704000002 586.3505247999999 688.3897704000002 584.2705076999999 C 686.9297484000002 582.9105222999999 685.6097411000002 581.3905639 684.4697875000002 579.7505491999999 C 683.7197875000002 578.6605222999999 682.8297729000002 575.7405393999999 681.8497924000002 575.0405271999999 C 685.3997802000002 577.5605466999999 689.0297851000001 580.1605222999999 693.1297607000001 581.7005614 C 696.7197876000001 583.050537 700.5797729000001 581.260559 703.7897338000001 582.2305296999999 C 702.0497436000002 581.7005614 700.4997558000001 580.5305175 699.5297851000001 578.9905395 C 704.4497680000002 576.7505493 709.9197387000002 575.760559 715.3097534000001 576.1205444 C 712.0297851000001 572.47052 706.6697388000001 571.2505493 703.3297729000001 567.6405639 C 700.7397460000001 564.8305663 699.65979 560.8705444 697.0497436 558.0805663 C 691.2297363 551.840515 679.8997802 553.2905272 674.6197509000001 546.5805663 C 674.0997924000001 545.9205321 673.6397704000001 545.1005248 673.8197631 544.2805175 C 673.9397582 543.7105101999999 674.3397826 543.2505492 674.7297362 542.8105468 C 680.0797728 536.8505248 685.4297484 530.9005126 690.7797850000001 524.9405517 C 686.5997923000001 526.3405151000001 677.5797728000001 530.0605468 673.5897826 526.8605346 C 671.9797362 525.5805663000001 671.1097411000001 523.5505370000001 670.7997435000001 521.5205077 C 670.4997557 519.4805297 670.6997679000001 517.4105223 670.8997801 515.3605346 C 671.0197752 514.2005615 671.1397703 513.0405273 671.2897337 511.89059440000005 C 672.4097899000001 503.56057730000003 674.9197386000001 495.9305724000001 683.2697752 492.4704894000001 C 679.6897581000001 492.09060660000006 676.0197752 492.6605529000001 672.7297361000001 494.1106261000001 C 671.0397337 494.8506163000001 669.3797605000001 495.8806456000001 668.3997800000001 497.4505919000001 C 667.0797727 499.56057730000015 667.1997678000001 502.2205504000001 666.9697873000001 504.7005919000001 C 666.2297360000001 512.4705199000001 661.3297727000001 519.7305296000001 654.3897702000002 523.3005370000001 C 656.0097653000001 518.9505614000001 657.6497800000002 514.5505370000001 658.2597653000001 509.95059190000006 C 658.8697507000002 505.3105773000001 658.4197384000001 500.60055530000005 658.8597409000001 495.9405821000001 C 659.3297726000002 491.0005186000001 661.2997433000002 486.45059190000006 664.4697873000001 482.6406553000001 C 667.4897458000002 479.0105283000001 672.7497556000001 478.0305479000001 677.4197385000001 477.6905821000001 C 670.4097898000001 474.99050890000007 662.7897336000001 471.7705382000001 659.4197385000001 465.05056750000006 C 658.1297605000001 462.49050890000007 657.5897824000001 459.61062610000005 656.4997556000001 456.95059190000006 C 654.4297483 451.91055280000006 650.2997434000001 447.74050890000007 645.2697751000001 445.63064560000004 C 645.4697873 448.0005186 646.7497556000001 450.11062610000005 647.5997922 452.3305968 C 649.0597531000001 456.1605529 649.2397458 460.4704894 648.0897824 464.4105529 C 648.5197751 462.9604797 641.8397824 457.5505675 640.3697506999999 456.44058220000005 C 642.1797482999999 457.94058220000005 643.7797849 463.0505676000001 644.7297361 465.1206359 C 646.1597898 468.2204894 647.3797605 471.4604797 647.819763 474.86062610000005 C 648.7197874 481.74050890000007 646.9897459 489.07058700000005 643.4597775999999 495.01052840000006 C 642.1197506999999 497.27053820000003 640.4097897999999 499.44058210000003 638.0297849 500.56057720000007 C 632.8797605 502.9905699000001 626.8497922 499.6905821000001 622.689758 495.8005674000001 C 618.5297849 491.9105528000001 614.6697385 487.1006162000001 609.1397701999999 485.7505186000001 C 611.5597531 489.5505674000001 613.8697506999999 493.41055280000006 616.0897823999999 497.33059670000006 C 619.5897823999999 503.55056740000003 622.9297481999998 510.41055280000006 622.1497799999999 517.5005491000001 C 621.8897701999998 519.7905271000001 620.9997555999998 522.2805174 618.9097897999999 523.2505491000001 C 616.9397580999998 524.1605222000001 614.6097409999999 523.3905637 612.6597897999999 522.4205320000001 C 608.9197384999999 520.5705564000001 605.5997921999999 518.0605466000001 602.4697873999999 515.2805174000001 C 601.4197385999998 514.2405394000001 600.4097897999999 513.1605223000001 599.4297482999999 512.0705565000001 C 595.0797726999999 507.25057970000006 590.7197873999999 505.1805724000001 587.0897825 499.1305846000001 C 585.1397092999999 495.8806456000001 582.7197874 492.9205626000001 580.319763 489.98049920000005 C 577.5597531999999 486.6206359000001 575.6697386 488.42056270000006 575.6997679 491.95059200000003 C 575.7197874 494.4604797 577.6897581 497.35061640000004 578.4998167 499.7105407 C 580.3897093 505.2505798 581.9998167 510.780548 584.3796995 516.1505126000001 C 586.9197386 521.9105224000001 589.9697874 528.3705443000001 587.5897825000001 534.1905517 C 584.5198362000001 532.8805541 582.6397093 529.8205566 580.8997190000001 526.97052 C 576.5298460000001 519.8305664 571.3497922000001 508.66055299999994 563.5497434000001 504.62057489999995 C 561.9397580000001 503.79055779999993 559.6997678000001 503.88058469999993 558.5897825000001 505.32058709999995 C 557.9697874000001 506.14059439999994 557.8197630000001 507.21054069999997 557.7197874000001 508.23056019999996 C 557.1597288 513.6705321 557.2798460000001 519.1505126 557.2498167000001 524.6205443 C 557.1797483000001 540.0005492 555.9397581000001 555.3705443 553.5198362000001 570.5605467 C 551.1997678000001 571.1105345000001 550.0298460000001 567.8605345000001 549.9097288000002 565.4705198 C 548.4898069000002 536.3005369 547.3997190000001 507.11056500000007 546.6497190000001 477.9105528 C 546.2698362000001 463.1206358 545.9797971000002 448.3305967 545.7698362000001 433.5405577 C 545.5897825000001 420.5505675 544.9697874000001 407.73049910000003 548.5098264000001 395.0605772 C 550.4998166 387.92056260000004 553.1597287000001 379.38064560000004 548.4397580000001 372.73049910000003 C 544.1997678000001 366.76052840000006 538.1196896000001 366.2505186 533.4898068000001 372.19058210000003 C 532.9998166000001 372.8105772 531.9497677000002 375.89065530000005 531.4998166000001 376.110626 C 535.2598264000002 374.3105772 540.3596799000002 376.5005186 541.6296994000002 380.4604795 C 542.8796994000002 384.3205869 540.9998166000001 387.400543 539.4397580000002 390.6306455 C 537.5697629000002 394.51052830000003 536.9197385000002 398.7104795 537.9898068000002 402.9604795 C 534.3596798000002 402.360626 531.0797726000002 400.5005186 527.8796994000003 398.6805723 C 524.1096799000003 396.5305479 519.9898068000002 393.9205625 519.0198361000002 389.6905821 C 518.2197873000002 386.1805723 519.8997189000003 382.58059669999994 521.9197384000003 379.60061629999996 C 523.9497677000003 376.62063579999995 526.4197384000003 373.8406065 527.5397335000002 370.4205626 C 527.1597286000002 371.5906065 521.3596798000002 373.1605528 520.1797481000002 373.6605528 C 517.5597530000002 374.77053820000003 514.5897823000003 375.8105772 512.3596797000002 377.610626 C 508.46978710000025 380.7505186 507.15972850000026 386.0005186 508.24981640000027 390.76052830000003 C 509.3397822000003 395.49050880000004 512.3497920000003 399.54055760000006 515.6196894000003 403.1306455 C 518.3796992000003 406.1705625 521.5497431000003 409.3506162 521.8997187000003 413.440582 C 522.1997675000003 417.0005185 520.3596796000004 420.8305966 522.1797480000004 424.230499 C 524.1196894000003 427.860626 529.0697626000003 429.0305478 531.3497919000004 432.6605527 C 533.9097284000004 436.7204892 534.1597284000004 442.3305966 532.1597284000004 446.6505429 C 530.5397333000004 450.1505429 527.6296991000004 452.9005429 525.7897333000004 456.2905575 C 522.8197626000004 461.7805477 522.9397577000004 468.3606259 522.9998163000005 474.6106259 C 523.1196893000005 487.5805966 522.6697382000004 500.5605771 521.6397089000005 513.4905392000001 C 521.4697870000006 515.5605465000001 520.2698359000005 518.3605343 518.2997431000006 517.6905514 C 517.1397089000005 517.2805172 516.7598261000006 515.8405148 516.5897822000005 514.6205441 C 513.7997431000006 494.4704892 517.9297480000005 473.14065519999997 510.5897822000005 454.17056239999994 C 509.2097773000005 468.74050869999996 507.6697383000005 483.30056729999995 505.96978710000053 497.84060629999993 C 505.1497187000005 504.8605647999999 504.75982620000053 512.1505123 503.3796992000005 519.080566 C 502.8197627000005 521.9005123 499.40972850000054 531.1005245 495.6296992000005 525.1605221 C 494.07977240000054 522.7205197 496.5298457000005 515.2105099 496.44976760000054 512.2005611999999 C 496.40972850000054 510.85055509999995 496.28973340000056 509.4305721999999 495.53973340000056 508.3005672999999 C 494.79974320000053 507.1805721999999 493.21978710000053 506.5005794999999 492.03973340000056 507.1605526999999 C 490.94976760000054 507.79055759999994 490.6697383000006 509.2105404999999 490.49981640000055 510.4605404999999 C 489.55975290000055 517.4105222 488.33978220000057 524.3805538999999 487.6697383000006 531.3605343999999 C 487.2598262000006 535.5505367999999 486.5497432000006 539.3405148999999 484.4697871000006 542.7105099999999 C 483.0497432000006 543.6105343999999 481.5697627000006 544.3905636999999 479.9697871000006 544.8305661999999 C 477.3897090000006 545.5505368999999 474.3596797000006 545.2505491 472.4297480000006 543.4005124999999 C 472.33978220000057 543.3005368999999 472.25982610000057 543.2005612999999 472.1697382000006 543.1005246999998 C 472.1296991000006 542.8205563999999 472.0897821000006 542.5505368999998 472.0597528000006 542.2805173999998 C 471.5597528000006 536.5805661999998 472.21978700000057 530.5805661999998 473.4797967000006 525.0105588999998 C 475.9197381000006 514.1405637999998 481.73980650000055 504.57058699999976 487.78973320000057 495.35061629999973 C 488.8997186000006 493.6605527999997 489.9898064000006 491.9604795999997 491.0897820000006 490.27053819999975 C 491.49981620000057 489.64065539999973 491.95977710000057 489.0505674999998 492.4397576000006 488.48049909999975 C 492.5897820000006 488.38064559999975 492.7297967000006 488.28054789999976 492.86968920000055 488.17056259999976 C 493.0497429000005 488.0305479999998 493.13970870000054 487.86062609999976 493.1497185000006 487.68057239999973 C 493.20977710000057 487.62063589999974 493.26983570000056 487.56057729999975 493.31976240000057 487.4905088999997 C 493.41973800000056 487.3406065999997 493.4297478000006 487.3606260999997 493.3897087000006 487.3606260999997 C 493.9697868000006 487.2705381999997 493.9497673000006 486.4804990999997 493.5397331000006 486.2104795999997 C 492.8497917000006 485.7505186999997 492.0497429000006 486.1805723999997 491.3897087000006 486.7005918999997 C 490.06976240000057 486.97048939999974 488.8596794000006 488.04055769999974 487.9197380000006 488.9005430999997 C 486.5897819000006 490.1206358999997 485.4397575000006 491.5205381999997 484.2698357000006 492.89065539999973 C 483.04974290000064 494.3205869999997 481.7297966000006 495.64065539999973 480.4697869000006 497.04055769999974 C 478.8897088000006 498.79055769999974 477.3796990000006 500.6105649999997 475.8297723000006 502.40054309999977 C 473.0397332000006 505.64059439999977 470.2598260000006 508.89059439999977 467.3897088000006 512.0705564999997 C 466.4097283000006 513.1605222999997 465.3897088000006 514.2405393999998 464.3497918000006 515.2805173999998 C 461.2197869000006 518.0605466999998 457.8997186000006 520.5705564999997 454.1597283000006 522.4205319999998 C 452.2097771000006 523.3905636999998 449.8796990000006 524.1605221999997 447.9097283000006 523.2505490999997 C 445.8197625000006 522.2805173999997 444.9297478000006 519.7905270999997 444.6697381000006 517.5005490999997 C 443.88970880000056 510.4105527999997 447.2297967000006 503.5505673999997 450.7297967000006 497.3305966999997 C 452.9397576000006 493.4105527999997 455.2598260000006 489.5505673999997 457.67974790000056 485.75051859999974 C 452.14971860000054 487.10061629999973 448.28973330000053 491.9105527999997 444.12969910000055 495.80056739999975 C 439.96978700000057 499.6905819999997 433.93975770000054 502.9905697999998 428.78973330000053 500.5605771999997 C 426.4097284000005 499.44058209999974 424.6997675000005 497.2705380999997 423.3497919000005 495.0105283999997 C 419.82977240000054 489.0705869999997 418.0997919000005 481.7405088999997 418.9898065000005 474.8606260999997 C 419.4297479000005 471.4604795999997 420.6597284000005 468.2204893999997 422.0797723000005 465.1206358999997 C 423.0397332000005 463.05056749999966 424.6397088000005 457.9405821999997 426.4497674000005 456.4405821999997 C 424.9797967000005 457.55056759999974 418.2997430000005 462.9604796999997 418.7297967000005 464.4105528999997 C 417.5797723000005 460.4704893999997 417.7498162000005 456.1605528999997 419.21978690000054 452.3305967999997 C 420.06976250000054 450.1106260999997 421.34979180000056 448.0005186999997 421.54974300000055 445.6306455999997 C 416.5198358000005 447.74050889999967 412.38970880000056 451.9105527999997 410.31976250000054 456.9505918999997 C 409.2297967000005 459.6106260999997 408.6897576000005 462.4905088999997 407.39971860000054 465.0505674999997 C 404.02984560000056 471.7705381999997 396.4097284000005 474.9905088999997 389.39971860000054 477.6905820999997 C 394.06976250000054 478.0305478999997 399.3297723000005 479.0105283999997 402.34979180000056 482.6406552999997 C 405.51983570000056 486.4505917999997 407.48980640000053 491.00051859999974 407.9597772000006 495.9405820999997 C 408.3997186000006 500.6005551999997 407.9497674000006 505.31057719999967 408.5597528000006 509.95059189999967 C 409.1697382000006 514.5505369999996 410.7997430000006 518.9505613999996 412.42974790000056 523.3005369999996 C 405.48980650000055 519.7305296999996 400.57977230000057 512.4705198999997 399.84979180000056 504.7005918999996 C 399.6196893000006 502.2205503999996 399.73980640000053 499.56057729999964 398.4197381000006 497.4505918999996 C 397.4397576000006 495.8806455999996 395.7798455000006 494.8506162999996 394.0897820000006 494.1106260999996 C 390.7997429000006 492.6605528999996 387.1296990000006 492.0906065999996 383.5497429000006 492.47048939999956 C 391.8997185000006 495.93057239999956 394.40972830000055 503.5605772999996 395.52984540000057 511.89059439999954 C 395.6797477000006 513.0405272999996 395.7997429000006 514.2005613999995 395.9097282000006 515.3605345999996 C 396.1196891000006 517.4105223999996 396.31976240000057 519.4805296999996 396.0198356000006 521.5205076999996 C 395.7097770000006 523.5505369999996 394.8297721000006 525.5805662999996 393.2297965000006 526.8605345999996 C 389.2297965000006 530.0605467999995 380.2197867000006 526.3405150999996 376.0298453000006 524.9405516999996 C 381.3796988000006 530.9005125999996 386.7398062000006 536.8505247999996 392.0897818000006 542.8105467999995 C 392.47979640000057 543.2505491999996 392.8796988000006 543.7105101999996 392.9998160000006 544.2805174999995 C 393.17974760000055 545.1005247999996 392.71978670000055 545.9205320999995 392.1897574000006 546.5805662999995 C 386.9197379000006 553.2905271999996 375.5897818000006 551.8405149999995 369.76983550000057 558.0805662999995 C 367.15972810000056 560.8705442999996 366.07977200000056 564.8305662999995 363.48980620000054 567.6405638999995 C 360.14971830000053 571.2505492999995 354.7897330000005 572.4705199999995 351.50982570000053 576.1205443999995 C 356.89971830000053 575.7605589999995 362.36968900000056 576.7505492999995 367.28973290000056 578.9905394999995 C 366.3197622000006 580.5305174999995 364.76983540000055 581.7005614999995 363.0298452000006 582.2305296999995 C 366.2398061000006 581.2605589999995 370.0897817000006 583.0505369999995 373.68975730000057 581.7005613999995 C 377.78973290000056 580.1605222999996 381.4197378000006 577.5605467999995 384.9697866000006 575.0405271999995 C 383.9898061000006 575.7405393999994 383.0997915000006 578.6605222999995 382.3497915000006 579.7505491999995 C 381.20977690000063 581.3905637999994 379.8897085000006 582.9105222999995 378.41973780000063 584.2705076999995 C 376.1797476000006 586.3505247999994 373.3297720000006 587.8505247999994 370.96978660000065 589.8605345999995 C 367.41973780000063 592.8705443999995 363.13970850000067 595.2705076999995 359.2897329000007 597.8905638999995 C 363.09979150000066 598.7005614999995 367.1497183000007 598.2905272999996 370.7297964000007 596.7405394999995 C 373.6897573000007 595.4605101999995 376.3796987000007 593.3905638999995 379.5597525000007 592.8105467999995 C 377.4797964000007 595.9305418999995 375.2498160000007 598.9505613999995 372.85967930000066 601.8405150999995 C 371.89971840000067 603.0105589999995 370.9097281000007 604.1705321999995 369.68975740000064 605.0805663999995 C 368.49981600000064 605.9705199999995 367.1196890000006 606.5905150999995 365.8097525000006 607.3005370999995 C 358.39971830000064 611.2905272999994 353.8696890000006 617.6105346999994 350.5597525000006 625.1205443999995 C 347.18975740000064 632.7705077999996 343.39971830000064 641.1105345999995 342.58978180000065 649.5905150999995 C 345.81976230000066 646.9005126999995 349.04974270000065 644.2205199999995 352.2698355000006 641.5305174999995 C 353.2297964000006 640.7305296999995 354.24981600000064 639.9005125999995 355.4797964000006 639.6505125999995 C 356.02984520000064 640.7705076999995 355.66973780000063 642.1205442999996 355.2498159000006 643.3005369999995 C 353.7097768000006 647.5305174999995 351.4097280000006 651.4905393999995 348.4797964000006 654.9105223999995 C 346.5597525000006 657.1605223999995 343.8497915000006 659.3505247999996 340.9497671000006 658.7405394999995 C 339.2297964000006 660.9805296999995 338.0298452000006 663.6205443999995 337.4797964000006 666.3905638999995 C 337.27984520000064 667.3905638999995 337.2698355000006 668.6605223999995 338.14971830000064 669.1705321999995 C 338.64971830000064 669.4605101999995 339.2698355000006 669.4005126999995 339.84979150000066 669.3505248999994 C 343.13970850000067 669.0505370999994 346.48980610000064 669.4405517999994 349.6196890000007 670.5005492999994 C 351.1096792000007 671.0005492999994 352.6897574000007 671.7905272999994 353.2798452000007 673.2505492999994 C 353.9697866000007 674.9505614999994 353.0397329000007 676.9105223999994 351.6997671000007 678.1705321999995 C 350.0997915000007 679.6805419999995 348.07977200000073 680.4705199999995 345.9497671000007 681.0805663999995 L 330.2097769000007 681.0805663999995 C 330.2097769000007 679.9805297999995 330.2097769000007 678.8805541999996 330.21978670000067 677.7905272999996 C 330.27984530000066 672.4905394999995 330.41973790000065 667.1905516999996 330.7897330000007 661.9005126999996 C 331.2097769000007 655.8705443999996 331.9197379000007 649.8705443999996 332.96978670000067 643.9205321999996 C 334.02984530000066 637.9305419999996 334.92974760000067 631.9905394999996 335.31976230000066 625.9205321999996 C 335.68975740000064 620.0605467999995 337.21978670000067 614.3505248999995 337.81976230000066 608.5205077999996 C 338.11968910000064 605.5405272999996 338.27984530000066 602.5305175999996 338.06976230000066 599.5405272999996 C 337.86968910000064 596.6805418999995 337.22979650000065 593.8905638999995 336.66973790000065 591.0805663999995 C 336.47979650000065 590.1105346999994 336.3097525000006 589.1205443999995 336.16973790000065 588.1305541999996 C 336.14971840000067 587.5105590999996 336.13970860000063 586.8805541999996 336.1597281000007 586.2605590999996 C 336.16973790000065 585.7605590999996 336.2097769000007 585.2705077999996 336.23980620000066 584.7705077999996 C 336.29974270000065 585.2805175999996 336.3696890000007 585.7905272999996 336.45977690000063 586.3005370999996 C 336.77984530000066 588.2305297999995 337.1597281000006 590.1305541999996 337.5797720000006 592.0305175999996 C 338.02984520000064 594.1105346999996 338.35967920000064 596.2305297999995 339.0597525000006 598.2505492999996 C 339.1997671000006 598.6505126999997 339.84979160000063 598.6105346999997 339.83978180000065 598.1505126999997 C 339.78973300000064 596.3405150999997 339.5597525000006 594.5505370999997 339.43975740000064 592.7405395999997 C 339.31976230000066 590.9705200999997 339.3696890000006 589.1805419999997 339.41973790000065 587.4105224999997 C 339.47979650000065 585.7005615999997 339.61968910000064 584.0005493999997 339.59979160000063 582.2905273999997 C 339.58978180000065 580.6905517999998 339.62969880000065 579.1005249999997 339.70977700000066 577.5105590999998 C 339.72979650000065 577.3805541999998 339.75982580000067 577.2405395999998 339.78973310000066 577.1105346999998 C 340.07977220000066 575.7205200999998 340.28973310000066 574.3005370999998 340.47979660000067 572.8905639999998 C 340.7798454000007 570.6805419999998 340.9597771000007 568.4505615999998 341.26983570000067 566.2405395999998 C 342.0497429000007 563.3505249999998 343.13970870000065 560.5705566999998 344.4597771000007 557.8905639999998 C 345.9497673000007 554.8905639999998 347.5697625000007 552.0105590999998 348.8596794000007 548.9205322999998 C 350.1597282000007 545.7905273999997 351.28973310000066 542.6005249999997 352.4497673000007 539.4205322999998 C 353.6897575000007 536.0405273999997 354.8796989000007 532.6605224999997 355.8997185000007 529.2105102999998 C 356.90972830000067 525.8005371999998 357.78973310000066 522.3505248999998 358.9497673000007 518.9905395999998 C 359.2498161000007 518.1105346999998 359.5697624000007 517.2405395999998 359.8696892000007 516.3605346999998 C 360.1597283000007 517.6705322999998 360.5397331000007 518.9705200999998 361.06976240000074 520.2005615999998 C 361.4597770000007 521.8305664999998 361.9597770000007 523.4305420999998 362.87969890000073 524.8505249999998 C 363.04974280000073 525.1205444999998 363.44976730000076 525.0105591999999 363.46978680000075 524.6905518999998 C 363.48980630000074 524.1805420999998 363.48980630000074 523.6605225999998 363.46978680000075 523.1505127999999 C 363.58978190000073 523.0605469999999 363.66973800000073 522.9305420999999 363.65972820000076 522.7405396999999 C 363.62969890000073 520.5005494999999 363.35967940000074 518.2805176999999 363.05975260000076 516.0705567999998 C 363.0497428000008 515.6905518999998 363.0497428000008 515.3105469999998 363.02984540000074 514.9205323999998 C 362.9597770000007 513.8205567999998 362.91973800000073 512.7005616999999 362.8997184000007 511.59054579999986 C 362.84979160000074 507.16055309999985 363.1697379000007 502.7205506999999 363.7097770000007 498.3205872999999 C 364.2097770000007 494.2705384999999 365.0397331000007 490.33059709999986 366.5198356000007 486.5105286999999 C 367.9497672000007 482.8506165999999 369.8897086000007 479.4105530999999 371.9097282000007 476.0505677999999 C 374.0697624000007 472.48049939999987 376.3897087000007 469.0906068999999 379.2398063000007 466.0205384999999 C 380.5697624000007 464.5906068999999 381.9497672000007 463.23049939999987 383.35967930000066 461.8806458999999 C 387.22979650000065 458.75051889999986 391.33978180000065 455.8806458999999 395.03973300000064 452.56057749999985 C 396.6997672000006 451.06057749999985 398.41973790000065 449.60061659999985 399.98980620000066 448.00051889999986 C 401.64971830000064 446.3005676999999 403.1597281000007 444.48049939999987 404.77984530000066 442.75051889999986 C 405.1597281000007 442.3406067999999 404.67974760000067 441.71047979999986 404.18975740000064 441.98049939999987 C 402.33978180000065 443.0105286999999 400.52984530000066 444.04055799999986 398.77984530000066 445.23049939999987 C 397.62969880000065 446.0105286999999 396.5597525000007 446.8806458999999 395.50982580000067 447.7805481999999 C 397.31976230000066 444.61062629999986 398.91973790000065 441.3305969999999 400.5997916000007 438.0906067999999 C 401.0597525000007 437.2204895999999 401.5198355000007 436.35061659999985 401.98980620000066 435.4905090999999 C 404.04974270000065 432.6905822999999 406.24981600000064 430.00051889999986 408.6196890000007 427.46047979999986 C 411.09979150000066 424.81057749999985 413.7498160000007 422.32058719999986 416.62969880000065 420.13064579999985 C 418.62969880000065 420.13064579999985 420.49981600000064 419.1206359999999 422.33978180000065 418.29055789999984 C 444.49981600000064 408.28054809999986 469.4797964000006 427.10061649999983 469.9797964000006 450.28054809999986 C 470.0198355000006 452.28054809999986 470.20977690000063 454.79055789999984 472.0797720000006 455.5205382999999 C 473.4797964000006 456.0605773999999 475.0897818000006 455.14065549999987 475.8897085000006 453.8706359999999 C 476.6897573000006 452.6006164999999 476.8997183000006 451.0605773999999 477.20977690000063 449.59060669999985 C 477.9097281000006 446.21047969999984 479.20977690000063 442.9505920999999 481.02984530000066 440.0205382999998 C 481.5198355000007 439.2304991999998 482.10967930000066 438.42056269999983 482.98980620000066 438.1206359999998 C 484.2698355000007 437.69058229999985 485.69976710000066 438.5906066999998 486.31976230000066 439.79055789999984 C 486.9497672000007 441.00051879999984 486.96978670000067 442.4105529999998 486.96978670000067 443.7605285999998 C 486.9497672000007 455.6605529999998 486.2498160000007 467.5505676999998 484.8696890000007 479.3706359999998 C 486.87969880000065 473.5305480999998 488.88970850000067 467.69058229999985 490.8997183000007 461.85061649999983 C 492.5897818000007 456.9704894999998 494.3696890000007 451.92056279999986 497.9197378000007 448.17056279999986 C 501.3297720000007 444.57058719999986 506.4697866000007 441.93057259999983 507.3796987000007 437.06057739999983 C 508.2598257000007 432.38064579999985 504.55975240000066 424.13064579999985 502.34979150000066 419.86062619999984 C 499.5797720000007 414.53054809999986 495.00982570000065 412.74050899999986 490.09979150000066 416.7905577999998 C 485.8397817000007 420.3005675999998 475.59979150000066 421.1006163999998 470.74981590000067 418.6805723999998 C 468.3397817000007 417.48049919999977 466.54974270000065 415.3406065999998 464.45977680000067 413.6406553999998 C 460.2798452000007 410.2405088999998 455.3796987000007 408.9505918999998 450.3197622000007 408.7104795999998 C 452.20977680000067 408.05056749999983 454.1096792000007 407.4205625999998 456.0997915000007 407.05056749999983 C 458.0697622000007 406.68057239999985 459.8997183000007 406.6705625999998 461.86968900000073 407.0105283999998 C 462.7997427000007 407.1705625999998 463.75982570000076 407.08059679999985 464.6997671000007 407.14065539999984 C 465.07977200000073 407.17056259999987 465.4998159000007 407.28054799999984 465.8796987000007 407.20059189999984 C 466.5298452000007 407.0705869999998 467.0298452000007 406.93057239999985 467.70977680000067 406.91055279999983 C 468.01983540000066 406.90054299999986 468.01983540000066 406.4604795999998 467.70977680000067 406.44058209999986 C 467.07977190000065 406.40054299999986 466.74981590000067 406.31057719999984 466.20977680000067 405.9704892999999 C 465.9497670000007 405.80056739999986 465.6997670000007 405.73049909999986 465.3997182000007 405.6406552999999 C 464.4697866000007 405.3506161999999 463.65972800000065 404.7905575999999 462.7398061000007 404.4905087999999 C 461.0797719000007 403.95059179999987 459.1597280000007 403.90054299999986 457.4397573000007 404.05056739999986 C 457.0497427000007 404.09060649999986 456.65972800000065 404.1406552999999 456.2798452000007 404.19058199999984 C 458.0497427000007 403.28054779999985 459.5597524000007 402.09060639999984 460.9497671000007 400.6605526999998 C 464.4497671000007 397.0505672999998 467.9197378000007 393.2605282999998 472.1296987000007 390.4604794999998 C 476.34979150000066 387.6605526999998 481.1897573000007 386.0505673999998 485.7197866000007 383.8606259999998 C 488.2598257000007 382.6406552999998 490.7297964000007 381.3005673999998 493.3997182000007 380.3606259999998 C 496.0997914000007 379.4005429999998 499.11968890000065 379.0005185999998 501.6397084000007 377.6006161999998 C 502.1096791000007 377.33059669999983 502.0397328000007 376.7104794999998 501.6397084000007 376.4305722999998 C 500.6296986000007 375.7304990999998 499.2798451000007 375.4405820999998 498.0797719000007 375.37063579999983 C 497.8897084000007 375.36062599999985 497.7197865000007 375.37063579999983 497.5397328000007 375.37063579999983 C 497.5198353000007 374.9905087999998 497.4697865000007 374.61062599999985 497.4097279000007 374.29055769999985 C 497.16973770000067 373.00051859999985 496.5697621000007 371.7605283999998 495.9697865000007 370.60061629999984 C 495.5198353000007 369.73049909999986 494.98980600000067 368.94058209999986 494.5597523000007 368.08059679999985 C 493.9797962000007 366.6505430999999 493.5397328000007 365.23049909999986 493.7897328000007 363.58059679999985 C 494.0298451000007 362.02053819999986 494.2498158000007 360.46047959999987 493.7398060000007 358.93057239999985 C 493.2997425000007 357.62063589999985 492.38970830000073 356.5405577999999 492.01983530000075 355.21047959999987 C 491.81976210000073 354.5105283999999 491.59979140000075 353.21047959999987 492.17974740000074 352.7505186999999 C 492.72979620000075 352.33059679999985 493.6997669000007 352.7805479999999 494.30975230000075 353.16055289999986 C 495.71978650000074 354.03054799999984 496.51983530000075 355.46047969999984 497.45977670000076 356.78054799999984 C 497.91973760000076 357.4205625999998 498.38970830000073 358.13064569999983 498.92974740000074 358.72048939999985 C 499.24981580000076 359.06057729999986 499.66973760000076 359.26052849999985 500.07977180000074 359.46047959999987 C 500.5098255000007 360.22048939999985 500.93975720000077 360.9905088999999 501.30975230000075 361.8005674999999 C 501.67974740000074 362.6106260999999 502.01983530000075 363.44058209999986 502.36968880000074 364.27053819999986 C 502.70977670000076 365.0705869999999 502.95977670000076 366.0105283999999 503.61968880000074 366.60061629999984 C 503.85967900000077 366.81057719999984 504.3796986000007 366.7805478999998 504.43975720000077 366.38064559999987 C 504.6096791000008 365.10061629999984 504.0098256000008 363.59060649999986 503.6697377000008 362.3606260999999 C 503.2598256000008 360.8606260999999 502.7698354000008 359.37063589999985 502.0198354000008 358.0105283999999 C 500.57977190000076 355.4305722999999 499.2997426000008 352.9305722999999 499.15972800000077 349.9305722999999 C 499.0198354000008 346.7405087999999 499.06976220000075 343.3706357999999 499.69976710000077 340.23049909999986 C 499.95977690000075 338.92056259999987 500.2897329000008 337.6206357999999 500.6397085000008 336.33059679999985 C 501.0298452000008 335.52053819999986 501.4197378000008 334.72048939999985 501.79974270000076 333.92056259999987 C 503.80975250000074 329.60061629999984 505.6196890000008 325.43057239999985 508.89971830000076 321.8606260999999 C 514.4898062000008 315.7805479999999 522.5298453000007 313.9005430999999 530.4998160000008 313.5305479999999 C 534.6196890000008 313.3406065999999 538.8197623000008 313.3906553999999 542.7698355000008 314.6006163999999 C 546.7097769000007 315.8205870999999 550.4097281000008 318.33059689999993 552.2598257000008 322.0305479999999 C 552.5298452000008 322.5705870999999 552.8796987000007 323.2204893999999 553.4898062000008 323.2405088999999 C 554.0897818000008 323.2505186999999 554.4697867000008 322.6306455999999 554.9998160000008 322.3506162999999 C 555.6597281000008 322.0105283999999 556.5098258000008 322.2705381999999 557.0597525000009 322.7705381999999 C 557.6096793000008 323.26052839999994 557.9397574000009 323.9604795999999 558.2498160000008 324.6406553999999 C 559.1196890000008 326.5205381999999 559.9197379000008 328.1605528999999 560.2498160000008 330.1705625999999 C 560.6096793000008 332.41055279999995 560.8897086000009 334.7104795999999 561.3397818000008 336.9305723999999 C 561.8696890000008 341.1505430999999 562.3997183000008 345.3806455999999 562.9397574000008 349.6006162999999 C 563.3696890000008 353.0205381999999 565.2297965000007 354.0906064999999 566.8397818000008 353.1905820999999 C 566.8297720000007 353.2304990999999 566.8097525000007 353.2705381999999 566.7997427000008 353.3105771999999 C 566.3596792000009 354.5605771999999 565.8997183000008 355.8105771999999 565.4697866000008 357.0805966999999 C 565.0298452000009 358.4105527999999 564.6697378000008 359.7905575999999 564.1997671000008 361.1006161999999 C 563.4097280000009 363.2905575999999 562.2398062000008 365.5405575999999 562.6897573000008 367.9305722999999 C 562.7997427000008 368.5305478999999 563.8097524000008 368.40054299999986 563.7698354000008 367.7805478999999 C 563.6997670000009 366.7605283999999 563.9697866000008 365.7605283999999 564.3897084000008 364.79055769999985 C 564.4397572000008 364.7605283999998 564.4797963000008 364.71047959999987 564.5098256000008 364.64065539999984 C 565.3297719000008 362.88064559999987 566.4497670000007 361.35061629999984 567.4697865000009 359.71047959999987 C 567.9297474000009 358.98049909999986 568.4197377000008 358.27053819999986 568.8397816000008 357.52053819999986 C 568.8596791000008 357.49050889999984 568.8796986000008 357.46047959999987 568.8997181000009 357.43057239999985 C 569.0597523000009 357.21047959999987 569.2097767000009 356.99050889999984 569.3596790000009 356.78054799999984 C 570.2997425000009 355.4604795999998 571.089781500001 354.03054799999984 572.5098255000009 353.16055289999986 C 573.119688800001 352.78054799999984 574.089781600001 352.33059679999985 574.639708300001 352.7505186999999 C 575.219786400001 353.21047959999987 574.9998157000009 354.51052849999985 574.799742500001 355.21047959999987 C 574.429747400001 356.54055769999985 573.519835300001 357.6206357999999 573.079771800001 358.93057239999985 C 572.569762000001 360.46047959999987 572.7897327000011 362.02053819999986 573.029845000001 363.58059679999985 C 573.279845000001 365.23049909999986 572.8397815000011 366.6505430999999 572.259825500001 368.08059679999985 C 571.829771800001 368.9405821999999 571.299742500001 369.73049909999986 570.849791300001 370.60061629999984 C 570.249815700001 371.7605283999998 569.649718100001 373.00051859999985 569.4097278000011 374.29055769999985 C 569.349791300001 374.6106260999999 569.299742400001 374.99050889999984 569.279845000001 375.37063579999983 C 569.099791300001 375.37063579999983 568.929747300001 375.36062599999985 568.7398059000011 375.37063579999983 C 567.5397327000011 375.44058209999986 566.1897571000011 375.7304990999998 565.179747300001 376.4305722999998 C 564.779845000001 376.71047949999985 564.7097766000011 377.33059669999983 565.179747300001 377.6006161999998 C 565.4898059000011 377.77053809999984 565.8097522000011 377.9305722999998 566.129698500001 378.0705868999998 C 566.2097766000011 378.2605282999998 566.359679000001 378.4105526999998 566.609679000001 378.4505917999998 C 566.6897571000011 378.4704892999998 566.779845000001 378.4905087999998 566.859679000001 378.5105282999998 C 566.9197376000011 378.5305477999998 566.9898060000011 378.54055759999983 567.0597522000011 378.5305477999998 C 567.2598254000011 378.6006161999998 567.4898059000011 378.6905819999998 567.679747300001 378.7204891999998 C 567.7598254000011 378.7304989999998 567.8397815000011 378.7405086999998 567.919737500001 378.7505184999998 C 569.739805900001 379.34060639999984 571.649718000001 379.73049899999984 573.419737500001 380.36062589999983 C 576.089781400001 381.30056729999984 578.559752100001 382.64065519999986 581.099791200001 383.86062589999983 C 582.679747300001 384.6306453999998 584.3097521000011 385.32058679999983 585.929747300001 386.0205379999998 C 586.1096789000011 386.1705623999998 586.2897327000011 386.3105770999998 586.4797961000011 386.4405818999998 C 587.169737500001 386.89065509999983 587.8696887000011 387.32058679999983 588.519835200001 387.82058679999983 C 589.699766800001 388.72048909999984 591.009825400001 389.8406062999998 591.559752200001 391.2505183999998 C 592.619688700001 394.0005183999998 591.319762000001 397.3806453999998 590.3497913000009 399.9604792999998 C 590.0997913000009 400.6106257999998 589.8197620000009 401.2505183999998 589.5098255000009 401.8706354999998 C 588.2798450000009 403.3706354999998 587.169737600001 404.9804987999998 586.159727800001 406.61062569999984 C 586.1497180000009 406.63064519999983 586.1296985000009 406.6605524999998 586.119688700001 406.68057199999987 C 585.679747300001 407.1705621999999 585.239805900001 407.6605524999999 584.8297717000011 408.1705621999999 C 584.5597522000011 408.4905084999999 584.319761900001 408.8205865999999 584.0797717000011 409.1705621999999 C 583.8897082000011 409.31057679999986 583.669737500001 409.4205621999999 583.449766800001 409.5205377999999 C 583.0298449000011 409.64065499999987 582.6096789000011 409.7304986999999 582.179747300001 409.78054759999986 C 580.6096789000011 409.78054759999986 579.029845000001 408.75051829999984 577.5597522000011 408.00051829999984 C 575.5597522000011 406.98049879999985 573.3397815000011 406.4305719999998 571.099791300001 406.3706354999998 C 570.679747400001 406.1306452999998 570.249815700001 405.8806452999998 569.839781500001 405.5906061999998 C 568.079771700001 404.3506159999998 566.669737600001 402.6306452999998 565.559752200001 400.7905573999998 C 564.219786400001 398.5705866999998 563.7997424000009 395.8506159999998 562.3997180000009 393.68057199999976 C 561.329771700001 392.01052809999976 559.0697619000009 393.14065499999975 559.359678900001 394.9604791999998 C 559.7997424000009 397.83059639999976 560.289732600001 400.6106256999998 561.069761900001 403.35061589999975 C 561.0298449000011 403.45059149999975 560.989805800001 403.55056709999974 560.999815600001 403.6705621999998 C 561.2297961000011 408.3606256999998 563.549742400001 412.47048899999976 565.9597765000011 416.3706353999998 C 566.5198351000012 417.2805474999998 567.0597521000011 418.2005914999998 567.3197619000011 419.2505181999998 C 567.5897814000011 420.32058659999984 567.6096789000011 421.4405816999998 567.6497180000011 422.5405572999998 C 567.6597278000012 422.63064519999983 567.6697375000011 422.7204888999998 567.6697375000011 422.82058659999984 C 567.6597277000011 422.96047919999984 567.6597277000011 423.11062569999984 567.6497180000011 423.2505181999998 C 567.5497424000012 425.4704888999998 567.4998157000011 427.6805718999998 567.4797961000012 429.9005425999998 C 567.4697863000011 432.1306450999998 566.9297473000012 434.30056699999983 566.4898059000012 436.47048889999985 C 566.2398059000012 437.68057189999985 565.8297717000012 439.10061589999987 565.8197620000012 440.4405816999998 C 564.7297962000013 444.6006158999998 563.8297718000013 448.80056709999985 562.6296985000013 452.93057189999985 C 561.7997424000013 455.76052799999985 561.0298450000013 458.66055239999986 560.6597278000013 461.59060609999983 C 560.2798450000013 464.59060609999983 560.5098255000013 467.68057189999985 560.6397083000013 470.70059149999986 C 560.6797474000012 471.4804986999999 561.6397083000013 471.93057199999987 562.2197864000013 471.35061589999987 C 563.3696887000013 470.18057199999987 563.6497180000014 468.7905572999999 563.9297473000014 467.2505181999999 C 564.3197619000014 465.17056209999987 565.0797717000014 463.17056209999987 565.7798450000014 461.18057189999985 C 567.3097522000014 456.78054749999984 568.9898059000014 452.4405816999998 570.4097278000014 448.01052799999985 C 571.0497424000014 446.0005181999999 572.0098255000014 444.14065499999987 573.0397327000014 442.31057679999986 C 574.0797718000014 440.47048889999985 575.0897815000014 438.5906060999999 576.2197864000015 436.8005669999999 C 576.8097522000014 435.88064509999987 577.4998157000015 435.02053769999986 578.2498157000015 434.2204888999999 C 578.7798450000015 434.9704888999999 579.3397815000014 435.7005913999999 579.9197376000014 436.4005425999999 C 582.0597522000014 438.9305718999999 584.6997669000015 441.2204888999999 587.5497425000015 442.9305718999999 C 590.6897571000014 444.8305962999999 594.2798450000015 445.8806450999999 597.8297718000015 446.6705620999999 C 599.5897816000015 447.0605766999999 601.3697498000015 447.45059139999995 603.1497791000015 447.7204888999999 C 604.4197376000016 447.9105523999999 605.6897571000015 448.1206353999999 606.9697864000016 448.2304986999999 C 607.5597522000015 448.3406060999999 608.1597888000016 448.3806451999999 608.7597644000016 448.31057679999986 C 609.4597766000015 448.3005669999999 609.9397571000015 447.9604790999999 610.1997668000016 447.49050839999984 C 610.6997668000016 447.45059139999984 611.2097766000016 447.3606255999998 611.6997668000016 447.19058159999986 C 613.3297717000016 446.62063529999983 613.2797839000016 444.50051809999985 611.6997668000016 443.92056209999987 C 610.9297473000016 443.63064509999987 610.1497790000016 443.44058159999986 609.3497912000016 443.2805474999999 C 607.0597521000017 441.67056209999987 604.0897814000016 441.6306451999999 601.5297839000016 440.6006158999999 C 600.6797473000016 440.2605279999999 599.8897693000016 439.84060609999995 599.1197497000015 439.38064519999995 C 598.4097277000016 438.80056709999997 597.7498156000015 438.1805719999999 597.1296984000015 437.52053779999994 C 595.3596789000015 435.63064519999995 594.0397326000016 433.46047919999995 592.7297961000015 431.26052799999997 C 591.2798449000015 428.82058659999996 589.7297961000015 426.390655 589.1797473000015 423.57058659999996 C 588.7698352000015 421.52053779999994 588.6797473000015 419.44058169999994 588.8197619000015 417.38064519999995 C 589.4697863000015 416.1805719999999 590.3097521000014 415.09060609999995 591.3696887000015 414.23049869999994 C 591.7398059000014 413.94058169999994 592.1296985000015 413.68057189999996 592.5298449000014 413.43057189999996 C 593.1497179000014 413.12063539999997 593.7897326000015 412.87063539999997 594.4497668000014 412.6605524 C 602.0297839000013 410.28054749999995 610.4097888000014 413.72048889999996 616.2997424000014 419.0605768 C 622.1997668000014 424.39065489999996 626.2397448000014 431.4005426 630.7997424000014 437.9105524 C 631.0197741000014 438.22048889999996 631.2997424000014 438.57058659999996 631.6797473000014 438.59060609999995 C 632.3997790000014 438.63064519999995 632.6297595000013 437.63064519999995 632.5697619000014 436.9105524 C 632.3297717000014 433.89065489999996 631.7097765000013 430.9105524 630.7297350000014 428.0405573 C 629.8797594000014 425.5605768 628.7397448000014 422.93057189999996 629.4697863000014 420.4005427 C 630.1097399000014 418.2104792 632.1097399000014 416.60061590000004 634.2997424000014 415.9604792 C 636.4897448000014 415.3105769 638.8397815000013 415.5205378 641.0697619000014 416.03054760000003 C 643.6497790000013 416.6106257 647.8297717000014 419.7304988 650.6897570000014 420.52053780000006 C 653.3797594000014 422.61062570000007 655.8697497000013 424.96047920000007 658.1997668000014 427.46047920000007 C 660.5697619000014 430.00051830000007 662.7697741000014 432.69058170000005 664.8297717000014 435.4905085000001 C 665.2997424000014 436.3506159000001 665.7597644000014 437.2204890000001 666.2197863000014 438.0906062000001 C 667.8897692000014 441.3305964000001 669.4997546000013 444.61062570000007 671.3097521000013 447.7805476000001 C 670.2597643000013 446.8806453000001 669.1897570000014 446.0105281000001 668.0397326000013 445.2304988000001 C 666.2897326000013 444.04055740000007 664.4797350000014 443.0105281000001 662.6297595000013 441.9804988000001 C 662.1397693000014 441.7104793000001 661.6597888000014 442.3406062000001 662.0397326000013 442.75051830000007 C 663.6597888000014 444.4804988000001 665.1697375000014 446.3005671000001 666.8297717000013 448.00051830000007 C 668.3997790000013 449.60061600000006 670.1197497000013 451.06057690000006 671.7797839000012 452.56057690000006 C 675.4797351000012 455.8806453000001 679.5797717000013 458.75051830000007 683.4597766000012 461.8806453000001 C 684.8697497000012 463.2304988000001 686.2497546000012 464.5906062000001 687.5797717000012 466.0205379000001 C 690.4297473000012 469.0906063000001 692.7497546000012 472.4804988000001 694.9097888000011 476.0505672000001 C 696.9297473000012 479.41055260000013 698.8697497000012 482.8506160000001 700.2897326000011 486.5105281000001 C 701.7797839000011 490.3305965000001 702.6097399000012 494.2705379000001 703.1097399000012 498.3205867000001 C 703.6497790000011 502.7205501000001 703.9697863000011 507.1605525000001 703.9197375000011 511.59054520000007 C 703.8997790000011 512.7005611000001 703.8597399000012 513.8205562 703.7897326000011 514.9205318 C 703.7697741000011 515.3105464 703.7697741000011 515.6905513 703.7597643000012 516.0705562 C 703.4597765000011 518.2805171000001 703.1897570000011 520.5005489 703.1597887000012 522.7405391000001 C 703.1497789000011 522.9305415000001 703.2297350000011 523.0605464000001 703.3497911000012 523.1505122000001 C 703.3297716000012 523.6605220000001 703.3297716000012 524.1805415000001 703.3497911000012 524.6905513 C 703.3697496000012 525.0105586000001 703.7697740000012 525.120544 703.9397569000012 524.8505244 C 704.8597398000012 523.4305415 705.3597398000012 521.8305659 705.7497545000011 520.200561 C 706.2797838000012 518.9705195 706.6597887000012 517.6705317 706.9497667000011 516.3605341 C 707.2497545000011 517.240539 707.5597521000011 518.1105341 707.8697496000011 518.990539 C 709.0297838000012 522.3505244 709.9097887000011 525.8005366 710.9197374000012 529.2105097 C 711.9397569000012 532.6605218999999 713.1297594000011 536.0405268 714.3697496000011 539.4205317 C 715.5297838000012 542.6005243999999 716.6597887000011 545.7905268 717.9597765000011 548.9205317 C 719.2497545000011 552.0105586 720.8697496000011 554.8905634 722.3597399000012 557.8905634 C 723.6797472000012 560.5705561 724.7697741000012 563.3505243000001 725.5497423000012 566.240539 C 725.8597399000012 568.450561 726.0397325000012 570.6805414 726.3397814000011 572.8905634 C 726.5297838000012 574.3005365 726.7397448000012 575.7205195 727.0297838000012 577.1105341 C 727.0597521000011 577.240539 727.0797716000012 577.3805536 727.1097399000012 577.5105585 C 727.1897570000011 579.1005243 727.2297350000011 580.6905512 727.2097765000011 582.2905268 C 727.1997667000011 584.0005487999999 727.3397814000011 585.700561 727.3997789000011 587.4105218999999 C 727.4497667000012 589.1805413999999 727.4997545000011 590.9705194999999 727.3797594000011 592.7405389999999 C 727.2597643000012 594.5505365999999 727.0297838000012 596.3405145999999 726.9797350000011 598.1505120999999 C 726.9697863000011 598.6105340999999 727.6197496000011 598.6505120999999 727.7597643000012 598.2505486999999 C 728.4497667000012 596.2305291999999 728.7897326000011 594.1105340999999 729.2397448000012 592.0305169999998 C 729.6497790000012 590.1305535999998 730.0397326000012 588.2305291999998 730.3597399000012 586.3005364999998 C 730.4497668000012 585.7905266999998 730.5197741000012 585.2805169999998 730.5797716000012 584.7705071999998 C 730.6097399000012 585.2705071999998 730.6497789000013 585.7605584999998 730.6597887000012 586.2605584999998 C 730.6797472000012 586.8805535999998 730.6697374000012 587.5105584999998 730.6497789000011 588.1305535999998 C 730.5097643000012 589.1205437999997 730.3397813000012 590.1105340999998 730.1397691000011 591.0805657999997 C 729.589781300001 593.8905633999997 728.9497667000011 596.6805413999997 728.7497545000011 599.5405266999998 C 728.5397325000012 602.5305168999997 728.6997667000011 605.5405266999998 728.9997545000011 608.5205071999998 C 729.5997911000011 614.3505242999997 731.1297594000011 620.0605462999997 731.4997545000011 625.9205315999998 C 731.8897691000011 631.9905388999998 732.7897325000012 637.9305413999998 733.8497911000011 643.9205315999998 C 734.8997789000011 649.8705437999997 735.6097398000011 655.8705437999997 736.029783800001 661.9005120999998 C 736.399778900001 667.1905511999997 736.539732500001 672.4905389999998 736.5997911000011 677.7905266999998 C 736.6097412 678.8805542 736.6097412 679.9805298 736.5997925 681.0805664 z" stroke-linecap="round" />
</g>
		<g transform="matrix(0.32033583775946894 0 0 0.32033583775946894 36.246536810026555 39.448884835575996)"  >
<path style="stroke: none; stroke-width: 1; stroke-dasharray: none; stroke-linecap: butt; stroke-dashoffset: 0; stroke-linejoin: miter; stroke-miterlimit: 4; fill: rgb(242,174,46); fill-rule: nonzero; opacity: 1;"  paint-order="stroke"  transform=" translate(-646.5614047899983, -606.75903335)" d="M 635.7705688 670.7619629 C 635.7861938 663.439209 635.7251586 656.0065917999999 635.5884399 648.5749512 C 635.4570922 641.3796387 635.2217407 634.3356934 633.8027954 627.2844239 C 633.3648071 625.1042481 632.0298462000001 618.458252 626.0317993 615.0339356 C 623.4273071 613.5607911 620.9346313 613.2390137 619.2852173 613.0266114 C 619.194397 613.0148925999999 619.0942993 613.0017091 618.9937134 612.9885254999999 C 618.5816040000001 612.2746582999999 618.0366822000001 611.0197754999999 617.6484986 610.1267091 C 616.4985963 607.4777832999999 615.0049439000001 604.039795 612.2329713 601.1662599 C 612.1963502 599.418213 612.3516236 597.687256 612.6978151000001 595.9919435 C 612.9028932000001 594.9831544000001 613.1904909000001 593.8981935 613.4946901000001 592.749756 C 613.9512331000001 591.027588 614.4683229000001 589.0754396000001 614.8057253000001 586.9816896000001 C 615.5713503000001 582.3146974000001 615.3057253000001 577.7868654000001 615.0713503000001 573.7917482000001 C 614.9561159000001 571.8293459000001 614.8477175 569.9758302000001 614.8599245 568.2224123000001 C 614.8853151000001 565.4157717 615.1953737 563.3444826000001 615.7808229000001 562.0852053000001 C 616.0601198 561.5930178000001 617.3692018 560.3200686000001 618.1519167000001 559.5598147000001 C 618.7832644000001 558.9460452000001 619.3989870000001 558.3439944 619.9614870000001 557.7526858000001 C 622.3506472000001 555.2312014000001 624.8452761000001 552.8317874 627.4868776000002 550.2912600000001 C 629.9990846000002 547.8747561000001 632.5913698000002 545.3815920000001 635.1060182000002 542.7561038000001 C 639.7066041000003 551.1750491000001 645.3027955000002 558.8146976000002 650.7188112000002 566.2087405000001 C 651.9600221000003 567.9167483000001 653.5303346000003 570.0773928000001 655.4707643000003 572.0969241000001 C 656.5527955000002 573.2365725000002 657.6987916000003 574.2697757000001 658.7100221000003 575.1809085000001 C 659.4976198000003 575.8903812000001 660.2412721000003 576.5607913000001 660.8540651000003 577.1916507000001 C 666.1358034000003 582.6535648 669.7461549000003 588.3132327000001 671.5698854000003 593.9992679000001 C 672.1470338000004 595.8020023 672.1270143000003 596.6135257000001 671.7798463000004 599.601807 C 670.9526979000003 606.5158695 673.5117799000004 612.6003422 675.5088502000003 616.5725101 C 677.1382447000003 619.817139 679.0083619000003 622.7145999 680.8169557000003 625.5163578 C 680.8428346000003 625.5568851 680.8692018000004 625.5974125 680.8950807000003 625.6374516000001 L 635.7705688 670.7619629 z" stroke-linecap="round" />
</g>
		<g transform="matrix(0.32033583775946894 0 0 0.32033583775946894 -36.50616348394129 38.78529844844036)"  >
<path style="stroke: none; stroke-width: 1; stroke-dasharray: none; stroke-linecap: butt; stroke-dashoffset: 0; stroke-linejoin: miter; stroke-miterlimit: 4; fill: rgb(242,174,46); fill-rule: nonzero; opacity: 1;"  paint-order="stroke"  transform=" translate(-419.44757075000007, -604.6874999500001)" d="M 385.9243774 625.6374512 C 385.95025630000004 625.5974121 385.97613520000004 625.5568848 386.0025024 625.5163574 C 387.8110962 622.7145995999999 389.6812133 619.8171385999999 391.31207270000004 616.5705565999999 C 393.30767820000005 612.6003417999999 395.86676020000004 606.5158690999999 395.03619380000004 599.5715332 C 394.69244380000004 596.6135254 394.67242430000005 595.802002 395.25054930000005 593.9963379 C 397.07330320000005 588.3132324 400.68365480000006 582.6535644999999 405.97955320000005 577.1774902 C 406.57769770000004 576.5612792999999 407.3213501000001 575.8913574 408.10797120000007 575.1818847 C 409.12017820000005 574.2702635999999 410.2666626000001 573.2365722 411.38677980000006 572.0568847 C 413.28912360000004 570.0773925 414.8594360000001 567.916748 416.1206665000001 566.1809081 C 421.51422120000007 558.8176269 427.1074829000001 551.1818847 431.7134399000001 542.7561034 C 434.23101800000006 545.3845214 436.8208618000001 547.8752440000001 439.33111570000005 550.2897948 C 441.97271730000006 552.8308104 444.46783450000004 555.2307128 446.84771730000006 557.741455 C 447.42047120000007 558.3439940999999 448.03619390000006 558.9460448 448.6675415000001 559.5598143999999 C 449.4502563000001 560.3200682999999 450.7593384000001 561.5930175 451.0625610000001 562.1325682999999 C 451.6240844000001 563.3439940999999 451.93414300000006 565.4162596999998 451.9605102000001 568.2438963999999 C 451.9692993000001 569.9558104999999 451.8604125000001 571.8015135999999 451.7456664000001 573.7551268999999 C 451.5103148000001 577.7580565999999 451.24371330000014 582.2941893999999 452.0059203000001 586.9919432999999 C 452.2637328000001 588.5622557999999 452.6182250000001 590.0441893999999 452.9707641000001 591.4079588999999 C 452.4282836000001 591.8986815999999 451.9121703000001 592.3806150999999 451.41558830000014 592.8591307999999 C 448.27740470000015 595.8464354999999 445.42486560000015 599.1701659999999 442.97515860000016 602.6999510999999 C 440.37750240000014 606.4343260999999 438.36236560000015 609.8322752999999 436.81988520000016 613.0798338999999 C 435.10455320000017 616.710205 432.9522094000002 622.2639158999999 433.96832270000016 628.7360838999999 C 434.21343990000014 630.3078611999999 434.81304930000016 631.7424315999999 435.68072500000017 632.9660643999999 C 433.95318590000016 634.2878417 432.4614867000002 636.0007324 431.33551020000016 638.0241699 C 428.08160400000014 643.8771972 427.83209220000015 650.9294433 427.61236570000017 657.151123 C 427.5469360000002 658.9958495999999 427.4854126000002 660.7380370999999 427.34527590000016 662.1262207 C 427.19244390000017 663.6081543 427.04595950000015 665.1071777 426.9058228000002 666.6188965 L 385.9243774 625.6374512 z" stroke-linecap="round" />
</g>
		<g transform="matrix(0.32033583775946894 0 0 0.32033583775946894 8.008396434889e-8 -25.669382281447184)"  >
<path style="stroke: none; stroke-width: 1; stroke-dasharray: none; stroke-linecap: butt; stroke-dashoffset: 0; stroke-linejoin: miter; stroke-miterlimit: 4; fill: rgb(242,174,46); fill-rule: nonzero; opacity: 1;"  paint-order="stroke"  transform=" translate(-533.4097294000001, -403.47779085)" d="M 739.0352173 567.4973145 C 738.8008423 566.7873536 738.5713501 566.1164551 738.3389282 565.454834 C 738.0337524 563.9719238 737.6943970000001 562.607666 737.3052368000001 561.3015137 C 736.2901001000001 557.9069825 734.9365845000001 554.5383300999999 733.1704712000001 551.0129395 C 732.3867798000001 548.6760254000001 731.5620728 546.3620606000001 730.7627564000001 544.1188965 C 730.3667603 543.0080567 729.9712525000001 541.8986817 729.5816041 540.7888184 C 728.7988893 538.5627442 727.9404908 536.4304199999999 727.1104127000001 534.3679199999999 C 726.7759400000001 533.5373536 726.4419557000001 532.7077638 726.1157838000001 531.8781738999999 C 725.6909791000002 530.8010254999998 725.2774049000002 529.7321777999998 724.8638307000001 528.6638183999999 C 724.1655885000001 526.8601074999998 723.4673463000001 525.0578613999999 722.7378541000002 523.2629394999999 C 722.2422486000002 522.0285644999999 721.7080689000002 520.7609863999999 721.1714479000002 519.4885254 C 720.7266237000002 518.4343262 720.2803346000002 517.3762207 719.8482057000002 516.3122559 C 719.4224245000003 515.1906739 718.9868776000002 514.0593262 718.5430299000002 512.9372559 C 718.0132447000002 511.44754029999996 717.6040651000002 510.10720829999997 717.2974244000002 508.85818489999997 C 717.2197877000002 508.1936341 717.1939088000001 507.43240369999995 717.1787721000002 506.40701299999995 C 717.1582643000002 505.14724739999997 717.1001588000001 503.52615359999993 716.8403932000002 501.8059387999999 C 716.5459596000002 497.72341929999993 715.8291627000002 493.4763489999999 714.7095338000003 489.17361459999995 C 714.2710572000003 487.46609509999996 713.7505494000003 485.75808729999994 713.1597291000003 484.09207159999994 C 713.0591432000002 483.48709109999993 712.9014283000002 482.88796999999994 712.6865846000003 482.30398569999994 C 710.9644166000003 477.56668099999996 708.6836549000003 472.94998179999993 705.9190065000003 468.61306769999993 C 703.4605104000002 464.76736459999995 700.6211549000003 461.1863098999999 697.4741823000003 457.95828249999994 C 695.3770143000003 455.8049621999999 693.1826784000003 453.93630979999995 691.3735964000002 452.4680480999999 C 689.6636355000002 450.3533019999999 687.9517214000002 448.0158996999999 686.1577761000002 445.3484191999999 C 684.5659792000002 442.9909972999999 683.0186159000002 440.3313293999999 681.1304323000002 436.7097472999999 C 679.3154909000002 433.2346495999999 677.1543581000002 429.8723449999999 674.5210573000002 426.4260558999999 C 669.4893190000001 419.8528136999999 663.5098268000002 413.96902469999986 656.7442018000002 408.9319152999999 C 653.3193971000002 406.3835754999999 649.7832643000002 404.1614074999999 646.2329713000001 402.3259582999999 C 644.3633424000002 401.3664855999999 642.3726197000002 400.38015749999994 640.0991822000002 399.6272277999999 C 637.4321900000002 398.7326965999999 634.7935181000003 398.3518371999999 632.5679322000002 398.0984191999999 C 630.0986939000002 397.8186339999999 627.8472291000002 397.55105589999994 625.6577760000002 397.1692199999999 L 625.5401002000002 397.1179504999999 C 623.9028932000002 396.4055481999999 622.2984010000002 395.8655090999999 620.8828736000003 395.3884582999999 C 620.1607056000003 395.1452941999999 619.4375611000003 394.90359499999994 618.7222291000003 394.6369934999999 C 617.4541627000003 394.1653137999999 615.8770143000003 392.4304504999999 614.2070924000003 390.5935364999999 C 613.5635377000003 389.8855286999999 612.9219362000003 389.1814270999999 612.2681276000003 388.5032044999999 C 609.1079714000003 385.2366028999999 604.1978151000003 380.52371229999994 597.9551393000003 377.20437639999994 C 595.0068971000003 375.63406389999994 592.0410768000003 374.32937639999994 589.1724245000003 373.06765759999996 C 587.4453737000002 372.30838029999995 585.8081667000002 371.5881654 584.2163698000003 370.83084119999995 C 585.1812136000003 368.14480599999996 585.4697878000003 365.31179819999994 585.0586550000003 362.43728649999997 C 585.0283816000002 362.2117006 584.9878542000002 361.9499818 584.9443972000003 361.68142709999995 C 586.4136355000003 358.44168099999996 589.1802370000003 351.34158329999997 583.8340456000003 345.05838019999993 C 582.8477175000003 343.88650519999993 581.6900026000003 342.92654429999993 580.4063112000003 342.19998179999993 C 580.2783815000004 341.13308729999994 580.1074831000003 340.03543099999996 579.8941042000004 338.90310679999993 C 579.1851198000004 335.1809387999999 578.1621706000003 331.6985169999999 577.1734011000003 328.3303528999999 C 576.7998659000003 327.0588684999999 576.4263308000003 325.78836069999994 576.0752566000003 324.5163880999999 C 574.9175418000003 320.29470839999993 572.7368777000004 314.10818499999993 567.2344363000003 309.2961732999999 C 563.5801394000003 306.10818499999993 559.0332644000003 303.3635560999999 553.7109988000003 301.1311341999999 C 550.7817996000003 299.9035950999999 547.6743777000003 298.9690247999999 544.4199832000003 298.3342591999999 L 544.4199832000003 297.6789857999999 L 535.7334598000002 297.3459779999999 C 535.5366825000002 297.3391420999999 535.3374637000002 297.3362123999999 535.1367801000002 297.3362123999999 L 534.6338504000003 297.3401185999999 C 534.2271121000002 297.33181779999995 533.8135379000003 297.3308412999999 533.4097293000002 297.3308412999999 C 533.0059207000002 297.3308412999999 532.5923465000002 297.3318178999999 532.1860965000002 297.3401185999999 L 531.6797488000002 297.3362123999999 C 531.4819949000002 297.3362123999999 531.2842410000002 297.3391420999999 531.0864871000002 297.3454896999999 L 522.3897098000002 297.6384584999999 L 522.3897098000002 298.3386537999999 C 519.1270145000002 298.9743959999999 516.0303348000002 299.90701319999994 513.1118778000002 301.1296693999999 C 507.78619420000024 303.3635560999999 503.23931920000024 306.1081849999999 499.59332310000025 309.2883607999999 C 494.08258090000027 314.10818499999993 491.90191690000023 320.2947084999999 490.74029580000024 324.53005999999993 C 490.39312780000023 325.7883607999999 490.01959270000026 327.0588685999999 489.64605750000027 328.33035299999995 C 488.6572880000003 331.69851709999995 487.6343387000003 335.18093889999994 486.92828410000027 338.88650529999995 C 486.7134403000003 340.026642 486.54205360000026 341.13162249999993 486.41314740000024 342.2038881 C 485.12262010000023 342.93582169999996 483.95562790000025 343.90554829999996 482.9551396000002 345.0940248 C 477.6426396000002 351.3371889 480.4004521000002 358.4270326 481.8696904000002 361.6701967 C 481.8272099000002 361.9265444 481.7861943000002 362.1848451 481.7490849000002 362.445099 C 481.3716435000002 365.21414200000004 481.6206669000002 367.90164200000004 482.48394820000016 370.4836732 C 482.00054980000016 370.7312318 481.52203410000016 370.9812318 481.05426070000016 371.2395326 C 480.1294560000002 371.7361146 479.14263960000017 372.2751771 478.1538701000002 372.8415834 L 477.7847295000002 373.0041811 C 474.8721318000002 374.2878725 471.8604131000002 375.6150209 468.8731084000002 377.1994936 C 462.6216436000002 380.52371239999997 457.7114873000002 385.236603 454.5615850000002 388.4929506 C 453.8994756000002 389.17947399999997 453.2588506000002 389.88211079999996 452.6167608000002 390.5881654 C 450.9463506000002 392.42605599999996 449.3682256000002 394.1618959 448.09869440000017 394.63259899999997 C 447.35650690000017 394.91043099999996 446.62994440000017 395.1540834 445.90387020000014 395.3992006 C 444.49859680000014 395.8728334 442.90631160000015 396.4104311 441.2793585000001 397.1179506 L 441.16168270000014 397.16922009999996 C 438.97222960000016 397.55105599999996 436.72125300000016 397.81863419999996 434.25543270000014 398.09793099999996 C 432.02594050000016 398.3518372 429.38726860000014 398.73269659999994 426.6890265000001 399.63748179999993 C 424.4722296000001 400.3669739999999 422.4692999000001 401.35964979999994 420.6118781000001 402.31277479999994 C 417.03619450000014 404.16140759999996 413.5000617000001 406.3835755999999 410.0772101000001 408.92996229999994 C 403.3257453000001 413.9485169999999 397.3447882000001 419.83377089999993 392.3032843000001 426.41970839999993 C 389.6294562000001 429.91922009999996 387.4649054000001 433.28836069999994 385.68121400000007 436.72586069999994 C 383.80035460000005 440.33230599999996 382.25250310000007 442.99246229999994 380.67096010000006 445.33474739999997 C 378.86871400000007 448.01443489999997 377.15582340000003 450.35330209999995 375.44586240000007 452.46804819999994 C 373.63775690000006 453.93533339999993 371.44439760000006 455.80349739999997 369.34283510000006 457.96023569999994 C 366.22320620000005 461.14920049999995 363.38043280000005 464.7341614999999 360.90728820000004 468.60232549999995 C 358.1358038 472.94998169999997 355.85504210000005 477.56668099999996 354.12164370000005 482.33474739999997 C 353.90972960000005 482.9109193 353.7539679000001 483.50418099999996 353.65533510000006 484.1052552 C 353.06597960000005 485.7678529 352.5454718000001 487.4773255 352.10260070000004 489.2033997 C 350.98980770000003 493.47732549999995 350.27349910000004 497.72341919999997 349.97906550000005 501.8059388 C 349.71929990000007 503.5261536 349.66119440000006 505.14627079999997 349.64068660000004 506.39578259999996 C 349.6255499 507.4309388 349.59967100000006 508.19314589999993 349.52203430000003 508.85818489999997 C 349.20904600000006 510.13455209999995 348.79547180000003 511.4778138 348.262757 512.9484864 C 347.83111640000004 514.0617675999999 347.3994758 515.1843262 346.9766242 516.2976075 C 346.5444953 517.3518067 346.1021125 518.4001466 345.6616828 519.4450684000001 C 345.12310859999997 520.7219239000001 344.5864875 521.9938965000001 344.0703742 523.2663575 C 343.3735969 524.9958497 342.7100226 526.7111817 342.04644840000003 528.427002 C 341.603089 529.5744629000001 341.15924140000004 530.7224122 340.70758120000005 531.8684082 C 340.37506170000006 532.7141113 340.03912420000006 533.548584 339.70269840000003 534.3840332 C 338.8750617 536.4406738 338.0195929 538.567627 337.23980780000005 540.782959 C 336.84820620000005 541.8981934 336.45269840000003 543.0075684 336.05719060000007 544.1179199000001 C 335.25787420000006 546.3615722000001 334.43316720000007 548.6755371 333.6489875000001 551.0129394 C 331.8828742000001 554.5378417000001 330.5293586000001 557.9064941 329.5171516000001 561.2917480000001 C 329.1074836000001 562.6687011000001 328.7578743000001 564.0700683000001 328.4732063000001 565.4753418000001 C 328.23785470000007 566.1462402000002 328.0078743000001 566.8186035000001 327.7837532000001 567.4968262000001 L 266.5776985000001 506.2908020000001 L 533.409729 239.4582672 L 800.2417603 506.290802 L 739.0352173 567.4973145 z" stroke-linecap="round" />
</g>
</g>
</g>
</svg>